<?xml version="1.0" encoding="UTF-8" standalone="no"?>
<svg xmlns:rdf="http://www.w3.org/1999/02/22-rdf-syntax-ns#" xmlns="http://www.w3.org/2000/svg" height="153px" width="501px" xmlns:cc="http://creativecommons.org/ns#" xmlns:xlink="http://www.w3.org/1999/xlink" xmlns:dc="http://purl.org/dc/elements/1.1/">
<title>Serranus scriba (Painted Comber)</title>
<desc xmlns:ian_image_library="http://ian.umces.edu/imagelibrary/">
      <ian_image_library:title>Serranus scriba (Painted Comber)</ian_image_library:title>
      <ian_image_library:descr>Illustration of Serranus scriba (Painted Comber)</ian_image_library:descr>
      <ian_image_library:scene>
		<ian_image_library:contains>symbol,vector,illustration,fish,painted,comber,Chordata,Actinopterygii,Perciformes,Serranidae,Serranus,scriba,Atlantic,marine</ian_image_library:contains>
        <ian_image_library:when>2005-03-14</ian_image_library:when> 
	  </ian_image_library:scene>
   </desc>
    <metadata
		id="metadata-iil-f860af714a5c2b242d0d740e9df873c3">
      <rdf:RDF>
      <cc:Work
         rdf:about="">
        <dc:format>image/svg+xml</dc:format>
        <dc:type
           rdf:resource="http://purl.org/dc/dcmitype/StillImage" />
        <cc:license
           rdf:resource="http://creativecommons.org/licenses/by-sa/3.0/" />
        <dc:title>Serranus scriba (Painted Comber)</dc:title>
		<dc:date>2005-03-14</dc:date>
        <dc:creator>
			<cc:Agent>
				<dc:title>Tracey Saxby</dc:title>
			</cc:Agent>	
		</dc:creator>   
		<dc:rights>
          <cc:Agent>
            <dc:title>Tracey Saxby, Integration and Application Network</dc:title>
          </cc:Agent>
        </dc:rights>
        <dc:publisher>
          <cc:Agent>
            <dc:title>Integration and Application Network</dc:title>
          </cc:Agent>
        </dc:publisher>
		<dc:identifier>http://ian.umces.edu/imagelibrary/displayimage-4241.html</dc:identifier>
        <dc:source>http://ian.umces.edu/imagelibrary/displayimage-4241.html</dc:source>
        <dc:language>en-US</dc:language>
        <dc:subject>
          <rdf:Bag>
            <rdf:li>symbol,vector,illustration,fish,painted,comber,Chordata,Actinopterygii,Perciformes,Serranidae,Serranus,scriba,Atlantic,marine</rdf:li>
          </rdf:Bag>
        </dc:subject>
        <dc:coverage></dc:coverage>
        <dc:description>Illustration of Serranus scriba (Painted Comber)</dc:description>
        <dc:contributor>
          <cc:Agent>
            <dc:title></dc:title>
          </cc:Agent>
        </dc:contributor>
      </cc:Work>
      <cc:License
         rdf:about="http://creativecommons.org/licenses/by-sa/3.0/">
        <cc:permits
           rdf:resource="http://creativecommons.org/ns#Reproduction" />
        <cc:permits
           rdf:resource="http://creativecommons.org/ns#Distribution" />
        <cc:requires
           rdf:resource="http://creativecommons.org/ns#Notice" />
        <cc:requires
           rdf:resource="http://creativecommons.org/ns#Attribution" />
        <cc:permits
           rdf:resource="http://creativecommons.org/ns#DerivativeWorks" />
        <cc:requires
           rdf:resource="http://creativecommons.org/ns#ShareAlike" />
      </cc:License>
    </rdf:RDF>
  </metadata>
	
 <defs></defs>
 <path d="m357.13 97.256c.041-.067-.589.264-.704.314.16-.002.86-.395.70-.314z" fill="#fff"/>
 <polygon points="358.83 97.229 358.56 97.341 359.25 97.141" fill="#fff"/>
 <path d="m359.06 97.879c1.084-.549-.265-.155.081-.443l.244-.136-.907.353c.21.071.87-.007.59.226z" fill="#fff"/>
 <path d="m356.8 99.241c.427-.203.399-.092.108-.132l-.108.061v.071z" fill="#fff"/>
 <path d="m356.8 99.169z" fill="#fff"/>
 <polygon points="357.16 99.352 356.74 99.43 356.26 99.701" fill="#fff"/>
 <path d="m358 99.098l-.183.024.18-.024z" fill="#fff"/>
 <path d="m357.44 99.169l.38-.047c.176-.089.542-.237-.143.006.34-.128.01-.016-.24.041z" fill="#fff"/>
 <path d="m357.59 99.047l.772-.349c-.22-.101-.99.259-.77.349z" fill="#fff"/>
 <path d="m360.22 97.412l.298-.209-.393.102c.19-.053-.25.263.09.107z" fill="#fff"/>
 <polygon points="356.77 100.09 357.7 99.688 357.41 99.735" fill="#fff"/>
 <path d="m357.7 99.688l.447-.064-.45.064z" fill="#fff"/>
 <polygon points="359.25 98.607 358.33 98.8 359.28 98.631" fill="#fff"/>
 <polygon points="356.88 100.44 356.3 100.6 357.18 100.37" fill="#fff"/>
 <path d="m357.06 100.62l-1.064.399.901-.146c-.23.03-.19-.04.16-.25z" fill="#fff"/>
 <path d="m357.45 100.78l-.556.104.56-.10z" fill="#fff"/>
 <polygon points="358.1 99.827 357.44 100.16 358.1 99.867" fill="#fff"/>
 <polygon points="358.12 99.857 358.1 99.867 358.09 99.958" fill="#fff"/>
 <path d="m358.74 99.105l1.382-.474-1.38.474z" fill="#fff"/>
 <polygon points="358.92 99.447 359.04 99.288 358.41 99.522" fill="#fff"/>
 <polygon points="359.15 99.42 358.92 99.447 358.88 99.508" fill="#fff"/>
 <polygon points="358.02 100.38 358.45 100.4 358.58 100.15" fill="#fff"/>
 <path d="m358.13 100.11l.041-.003h-.04z" fill="#fff"/>
 <polygon points="358.65 100.92 358.77 100.87 358.65 100.9" fill="#fff"/>
 <polygon points="358.71 100.09 358.43 100.09 358.58 100.15" fill="#fff"/>
 <path d="m357.83 100.8l.346-.203c-.21.10-.53.26-.35.20z" fill="#fff"/>
 <path d="m357.99 100.18l-.033.007.03-.01z" fill="#fff"/>
 <polygon points="357.99 100.18 358.43 100.09 358.17 100.1" fill="#fff"/>
 <path d="m363.14 99.657c-.644.193-1.28.261-.644-.074-.521.048-2.58.819-3.718 1.283l.955-.192 1.334-.597c.379.034-.184.189-.495.366.772-.315 1.227-.189 2.385-.59h-.461l.64-.203z" fill="#fff"/>
 <polygon points="358.77 100.66 358.67 100.65 357.86 101.07 358.65 100.9 358.67 100.68" fill="#fff"/>
 <path d="m358.6 100.46l1.755-.521-.941.139c.251.139-.399.077-.738.355l-.224-.041-.277.207.047-.021-.006.003.006-.003.095-.034h.014l.265-.081-.265.081-.108.034.447.064-.08-.19z" fill="#fff"/>
 <path d="m361.62 98.174l-.156.067.16-.067z" fill="#fff"/>
 <path d="m361.25 98.421l-.325.037.549-.217-.826.309.102-.021c-.203.176-1.009.605-1.111.626l1.62-.734z" fill="#fff"/>
 <path d="m360.11 99.41l.399.051.563-.301-.359.135c.10-.153-.33.030-.60.115z" fill="#fff"/>
 <polygon points="358.31 101.04 357.58 101.26 358.64 101.02" fill="#fff"/>
 <polygon points="358.48 101.22 357.85 101.42 358.25 101.35" fill="#fff"/>
 <path d="m359.89 100.34l.148.102-.15-.10z" fill="#fff"/>
 <path d="m360.11 100.13l-.298-.142.30.142z" fill="#fff"/>
 <path d="m363.45 96c.555-.281 1.449-.641.758-.339l-.67.295-.09.044z" fill="#fff"/>
 <polygon points="358.42 95.682 358.6 95.807 358.1 95.299" fill="#fff"/>
 <path d="m360.7 97.693l-.405-.229.40.229z" fill="#fff"/>
 <path d="m351.51 97.016l-.711-.21c-.03.111.35.132.71.210z" fill="#fff"/>
 <path d="m364.66 97.348l.122-.468c-.19.386-.53.928-.12.468z" fill="#fff"/>
 <path d="m352.82 97.141l.373.23-.37-.230z" fill="#fff"/>
 <path d="m364.59 96.735l-.068.159.258-.014c.14-.291.19-.498-.19-.145z" fill="#fff"/>
 <path d="m354.53 88.741l.095.007-.09-.007z" fill="#fff"/>
 <path d="m362.26 88.663l.026.108-.03-.108z" fill="#fff"/>
 <path d="m361.21 101.11l.353-.081-.35.08z" fill="#fff"/>
 <path d="m358.8 101.98l-.182.115.18-.12z" fill="#fff"/>
 <path d="m358.48 102.08l.054-.058-.05.06z" fill="#fff"/>
 <polygon points="358.57 102.18 358.62 102.09 358.51 102.13" fill="#fff"/>
 <path d="m355.14 93.691l.068.003-.07-.003z" fill="#fff"/>
 <polygon points="355.92 97.399 355.96 97.399 355.98 97.381" fill="#fff"/>
 <path d="m355.34 97.293c.908-.115.813-.037.637.088l2.038-.609-2.68.521z" fill="#fff"/>
 <path d="m351.78 98.604c1.01-.017-.148-.393-.711-.596.346-.014 1.68.352 1.361.088-.358-.355-1.666-.237-1.883-.454l1.206.088c-.833-.379.014-.396.217-.548l-.325-.133c.562-.098-1.023-.626-.597-.7l1.043.098-.643-.406 1.592.457-.475-.28.771.179-1.036-.494-.203.037c.014-.071-.365-.308.203-.294l.752.209c-.765-.07-.149.105.339.248-.062-.21.183-.011.684-.004.014-.136-.86-.372-1.429-.457.298-.095.48-.104-.149-.403l.901.221-.244-.2 1.077.349c.69-.132-1.544-.379-.948-.568l.799.173c-.271-.184-1.604-.519-.623-.396-.453-.22-1.178-.054-1.266-.355l.934-.03c-.338-.166-.961-.146-.867-.068-.257-.487 2.791.366 1.85-.223-.609-.011-1.51-.457-1.571-.163-.434-.247 1.232-.007.406-.349l.989.328-.434-.247.779.196c-1.321-.501.744-.172-1.023-.707 1.389.413-.041-.149.528-.088.955.386-.148.409 1.151.737.413.027-.21-.183.196-.155l.766.318c.799-.041-.69-.528-.989-.748l.23.308c-1.293-.332-.19-.159-1.192-.474.739.051-.25-.292.211-.281l.095.081c.04-.271 2.18.193 2.248.102.196-.054-.454-.423-1.022-.498-.339-.172.284.44-1.354-.135 1.983.352-.637-.491.785-.471l1.599.464-.928-.484.616.115c-1.301-.563-1.186-.366-1.822-.867l1.314.309-.44-.362.081.033c-.224-.393.84-.037.244-.504l-.372-.075c-.874-.646-.103-.931-.44-1.445l-.339.048c.196.013-.494-.434.102-.383l.129.132 1.145.193-.604-.224.488.111c.054-.139-.901-.23-.847-.369 1.794.464.413-.528 1.997-.159-1.246-.498-.257.203-1.388-.264l.582.017-.778-.21c.563-.288 1.26-.233 1.205-.66l.163.068c.331-.034.216-.149-.427-.427l.846.298c-1.875-.887 1.564.017.244-.582l4.239 1.28-.162-.152c1.009.376-.054.291.988.701l-1.138-.075 1.077.353c0 .078.04.155.616.247-2.783-.183-.48 1.324-2.052 1.548l.69.213c-1.022-.18.481.271.604.379l-1.477-.25 1.137.362c.19.416-1.3.342-.534.856l-1.354-.281c1.523.261.596.532 1.666.722-1.604-.325-.454.318-2.628-.329-.169.105.895.369 1.104.383-.129.139-.184.268.467.579-.535-.044.339.867-1.361.593 1.104.173.555.146.995.358l.976.152-.169.184-.048.044-.813-.112c-.102.129.42.265.887.461l.149.014.061.115c-.054.064-.873-.478-1.428-.366.263.068 1.476.505.771.403.088-.105-.583-.251-.874-.274l-.115.152 1.22.23c-.203.453-1.206.755-1.287 1.286-1.057-.236-.155.35-1.7-.026l.156.013c-.122-.162-1.246-.223-1.097-.081.528-.007 1.503.521 1.808.309l.685.355c2.952.725-.413.478.46.979l-.359-.102c.881.45-.988.447-.528.603l-.825-.129c1.191.468 1.293.508.697.694l-.542-.091c.589.176 1.179.349.954.508l-.257-.055.048.318c-3.528-.884 4.138 1.47-5.661-1.32-.258-.277-.468-.583.866-.115-.663-.335-.738-.671-1.002-.928l.339.111c-1.199-.693.622-.199.562-.393l-1.083-.538c1.097.301-.759-1.101-.299-.972.189-.099.908.416 1.436.649-.088-.321-2.071-1.094-.988-.884l.264.248c.271-.018 2.946 1.31 2.485.924l-.439-.176c-.447-.535 2.045.721.589-.24l-.697-.424c1.097.291-.17-.312.806-.084l.108.081c-.041-.224.819.305-.189-.525l-.177-.058.285-.312.04-.152c-.84-.674-.115-.714-.013-.741l.785.715c-.623-.644-.65-.766-.095-.451-1.003-.903-2.065-1.875-1.95-2.177l.393.474-.026-.186.69.674c-.834-1.029.121-.329-.048-.863l.819.782c1.7.229-5.255-2.13 5.005 1.489-.265.081-.475.149.494-.014-1.104.494.081.813-1.145 1.206-.528.159.366.061.399.111l-.649.146c1.212-.118.46.034 1.679-.095l-1.727.505 1.368-.237-.989.308c.4-.054.251.052.108.163l-.277.071c1.381-.394 1.253-.078 1.916-.355-1.3.49.366-.112-.847.389l.468-.172c.563-.255 1.192-.519.921-.403l.021-.01-.738.338.284-.108.36-.191-.359.186-.007.007-.034.018-.006.02c-.976.705 1.334-.877-.014.136h-.03c.014-.017-.656.843-.162.471l.549-.521.515-.281.588-.623c-.148.278.772-.738-.304.681.413-.542.095.335.318.221l-.38.538.399.044c-.615 1.267.454.39.609.64l-.114.146.514-.189c-.439.41.313-.277.271-.098.277-.189.277.033.088.42l.055.07c-14.222 8.983-3.948 2.452-7.124 4.439l.182-.003.041-.007c3.015-1.887-6.697 4.215 6.752-4.227l-.014.014-.067.064c-2.729 1.74 5.749-3.518-6.163 4.013l.908-.321-.624.074.731-.21c-.419.051-.46-.125-1.238.041l-.475.192-.014.007-.041.017.027-.013-.298.061c.115-.146-.169-.023-.494.074 1.09-.443.298-.281 1.592-.771-1.449.572-.115-.265-1.518.247 1.118-.44.034-.074.989-.434-.265.217.84.017 1.381-.027l.65-.312c1.328-.318-.393.383.067.312-.318.048-.054-.135.237-.224l-.981.322c-.339.261.48.148 1.022.118l1.327-.314-.156-.048.982-.176c-.169.65-1.666.562-.894-.139-.122.24.107.132.345-.068l.169-.416c.109.044-.419.803-.066.637l1.57-1.894c.406-.991-1.313 1.139-1.449.712-.155.132.745-.779.359-.637-.623.349-1.707 1.401-2.594 2.516.338-.264 1.029-.785.399.037l-1.063.87c.671-.999.366-.162.888-1.022l-.495.403.63-.921-.095-.891.495-.694c-.285.196-1.545 1.463-1.985 2.068-.176-.084.19-.524-.142-.375-.515.979.081-.166-.704.677-.23-.017.324-.457.446-.704l-.629.531 2.295-2.366c.38-.525 1.03-1.483 1.091-1.545-.725.657-3.616 3.44-4.429 4.46-.488.46.372-.634.379-.731.63-.894-.887.325-.718-.105l.562-.294c.19-.207-.277-.152-.609.017.298-.237 1.592-1.107 1.896-1.47.033-.338-1.849.565-2.804 1.182l1.301-.125c-.725.616-1.003.18-1.924.854l-.081-.806c.067.067.434.152.819-.217-.176-.214.067-.217.365-.59 1.22-.284 3.936-1.733 5.073-2.634l-.542.291.447-.342c-.617.393-3.949 2.042-4.876 2.37.101-.314 1.95-1.147 2.315-1.311-.033-.264-2.743.941-2.675.413l-.339.312c-.224-.034 0-.528-.339-.369.468-.264 1.687-.684 2.019-.731l-1.869.312c.196-.021 1.747-.524 2.024-.592.041-.115-1.835.365-2.071.511 1.076-.549.474-.318 1.768-.856-.122-.027-1.66.467-1.822.565-.447-.027-.271-.173-.115-.284.725.054 3.528-.891 4.733-1.169l-4.781.752c.285-.051 1.795-.376 1.979-.423-1.402.312-1.707-.24-1.572-.563l.027.041c.494-.037.84-.342.325-.349l.23.04c1.036-.352-2.201.115-.982-.284-.101.2.481.143 1.043.041-.541-.058-.041-.461-1.706-.163l.284-.166c11.289 3.786 2.953.908 5.188 1.46l.609.9-.589-.515c-1.781-.593 3.644.257-4.496-1.899l2.478-.302c.711.532 1.531 1.971 2.479 2.892l-.67-.318.352.322-.928-.755.271.305-.325-.302.189.24-1.49-1.378.542.372-1.219-1.083.176.203-.737-.685.304.572.752.495 1.877 1.781-.624-.339c.854.884.678.711 1.294 1.395l-.86-.66c1.022.911-1.456-.646-.508.078l1.07.877-.353-.227.677.545-.818-.528c.46.484.792.775.379.653.081.237 1.504.844 1.286.856-.616-.352-1.341-.769-1.489-.748l1.11.762-.941-.535c0 .082.143.221-.575-.165.372.271.277.261.108.206.446.349 1.99.955 2.37 1.154-.772-.318-.387-.058-1.585-.603l-.203-.203c-1.321-.434 1.267.816-.854-.108.122-.017-.346-.345-.907-.572l.434.335-.475-.236.976.593-.062-.031.055.228-.359-.17.447.325-.758-.257c-.407.02 2.18 1.002 1.083.69l-.062-.061-.487-.126.935.41.115.098.021.034v.017c-20.249-5.237-5.614-1.452-10.131-2.62v-.007l-.007-.014c-.014-.146-.034-.295-1.165-.498.955.023.548.088 1.571.437l.69-.03-.02.186zm8.39 1.209c.44.203.008-.081-.129-.183-.27-.088-.68-.267.13.183zm-.61-3.353l.189.021-.19-.021zm5.88 1.66l.033-.03c.05-.16.10-.275-.03.03zm-.01.17l.196-.055-.23.251.03-.196zm-5.02-3.868l.224.021c-.22-.078-.42-.152-.22-.021z" fill="#fff"/>
 <path d="m360.44 97.459l-.346-.274.35.274z" fill="#fff"/>
 <polygon points="351.64 97.053 351.65 97.049 351.51 97.016" fill="#fff"/>
 <path d="m358.6 101.86l.211-.38-.21.38z" fill="#fff"/>
 <polygon points="357.98 101.8 358.22 101.83 358.44 101.67" fill="#fff"/>
 <polygon points="362.44 99.386 362.32 99.373 361.96 99.501" fill="#fff"/>
 <path d="m360.54 100.92c.657-.21.406-.207.257-.241v.014c-.93.27-.60.25-.26.23z" fill="#fff"/>
 <path d="m360.76 100.67l-.041-.061c-.37.11-.07.05.04.06z" fill="#fff"/>
 <path d="m359.11 102.12c.155-.077-.854.217-.597.122-.85.20 1.11-.07.60-.12z" fill="#fff"/>
 <polygon points="362.67 100.2 361.88 100.47 362.55 100.31" fill="#fff"/>
 <polygon points="362.31 100.97 362.49 100.79 362.2 100.84" fill="#fff"/>
 <path d="m362.2 100.84l-.176-.058.18.06z" fill="#fff"/>
 <polygon points="362.98 100.29 362.83 100.38 362.8 100.48" fill="#fff"/>
 <polygon points="362.84 100.03 362.57 100.12 362.4 100.45" fill="#fff"/>
 <polygon points="361.68 102.08 362.06 101.55 361.38 102.35" fill="#fff"/>
 <path d="m361.22 102.02c-.197.217-.685.524-.509.579l.51-.58z" fill="#fff"/>
 <polygon points="360.38 99.583 360.41 99.599 361.61 98.357" fill="#fff"/>
 <path d="m355.44 99.62c-.217.491.995-.383.671.108l.616-.48c-.48.023-.31-.177-1.29.372z" fill="#fff"/>
 <path d="m356.72 99.248l.28-.035-.28.035z" fill="#fff"/>
 <polygon points="363.24 88.595 363.62 88.612 363.05 88.487" fill="#fff"/>
 <polygon points="362.09 87.985 363.14 88.321 362.21 87.935" fill="#fff"/>
 <polygon points="362.09 100.53 361.87 100.4 361.53 100.27" fill="#fff"/>
 <polygon points="360.83 100.82 360.85 100.82 359.92 100.47" fill="#fff"/>
 <path d="m349.71 97.667l.089.189c-.15-.146 1.13.010-.09-.189z" fill="#fff"/>
 <linearGradient id="ian_symbols_78703f2038fcfa4445ae6b4ae4e21449" y2="31.546" gradientUnits="userSpaceOnUse" x2="386.47" y1="31.546" x1="154.53">
  <stop stop-color="#877968" offset=".1236"/>
  <stop stop-color="#593F36" offset=".9607"/>
 </linearGradient>
 <path stroke="#545347" stroke-width=".2107" d="m172.66 1.858c6.318-1.264 12.225-1.264 25.726-1.689 13.488-.413 29.936 1.271 44.275 2.538 14.339 1.253 41.74 5.054 48.065 7.169 6.332 2.102 15.184 3.791 18.137 5.055 2.953 1.271 10.535 2.527 16.028 3.804 5.48 1.257 15.178 8.004 21.922 12.64 6.751 4.646 23.191 12.231 26.996 14.765 3.79 2.534 10.961 6.748 11.379 8.427.426 1.689.853 6.757 1.271 8.018.426 1.264-24.036-.848-24.036-.848l-207.89-55.652s11.81-2.957 18.13-4.227z" fill="url(#ian_symbols_78703f2038fcfa4445ae6b4ae4e21449)"/>
 <linearGradient id="ian_symbols_92f3dbd9d22874140d0f744274ace205" y2="-8077.6" gradientUnits="userSpaceOnUse" x2="-7920.3" gradientTransform="matrix(6.6297 -3.4978 4.4228 6.0241 88437 20953)" y1="-8077.6" x1="-7924.3">
  <stop stop-color="#8D846D" offset=".0337"/>
  <stop stop-color="#877968" offset="1"/>
 </linearGradient>
 <path d="m205.14.169c-.797.023-28.287 5.244-29.942 5.717-1.649.479-.946 1.737-.946 1.737s31.67-7.474 30.89-7.454z" fill="url(#ian_symbols_92f3dbd9d22874140d0f744274ace205)"/>
 <linearGradient id="ian_symbols_50cbbc5d33be6e24451d0db3140b0eff" y2="-8076.7" gradientUnits="userSpaceOnUse" x2="-7919" gradientTransform="matrix(6.6297 -3.4978 4.4228 6.0241 88437 20953)" y1="-8076.7" x1="-7923">
  <stop stop-color="#8D846D" offset=".0337"/>
  <stop stop-color="#877968" offset="1"/>
 </linearGradient>
 <path d="m217.78 1.017c-.791.02-28.28 5.24-29.936 5.716-1.663.477-.939 1.734-.939 1.734s31.66-7.474 30.88-7.45z" fill="url(#ian_symbols_50cbbc5d33be6e24451d0db3140b0eff)"/>
 <linearGradient id="ian_symbols_6f8ba7786b8642c44542ff31c49c0ed8" y2="-8075.8" gradientUnits="userSpaceOnUse" x2="-7917.7" gradientTransform="matrix(6.6297 -3.4978 4.4228 6.0241 88437 20953)" y1="-8075.8" x1="-7921.6">
  <stop stop-color="#8D846D" offset=".0337"/>
  <stop stop-color="#877968" offset="1"/>
 </linearGradient>
 <path d="m230.86 1.858c-.797.024-28.287 5.244-29.942 5.724-1.656.473-.939 1.723-.939 1.723s31.67-7.464 30.88-7.447z" fill="url(#ian_symbols_6f8ba7786b8642c44542ff31c49c0ed8)"/>
 <linearGradient id="ian_symbols_5813f40df48a89049db7260186588f78" y2="-8074.8" gradientUnits="userSpaceOnUse" x2="-7916.4" gradientTransform="matrix(6.6297 -3.4978 4.4228 6.0241 88437 20953)" y1="-8074.8" x1="-7920.3">
  <stop stop-color="#8D846D" offset=".0337"/>
  <stop stop-color="#877968" offset="1"/>
 </linearGradient>
 <path d="m243.49 3.128c-.777.021-28.273 5.244-29.922 5.707-1.656.477-.946 1.733-.946 1.733s31.68-7.463 30.87-7.44z" fill="url(#ian_symbols_5813f40df48a89049db7260186588f78)"/>
 <linearGradient id="ian_symbols_ce87bfa15ad4324475b15166392a123e" y2="-8073.7" gradientUnits="userSpaceOnUse" x2="-7915.1" gradientTransform="matrix(6.6297 -3.4978 4.4228 6.0241 88437 20953)" y1="-8073.7" x1="-7919">
  <stop stop-color="#8D846D" offset=".0337"/>
  <stop stop-color="#877968" offset="1"/>
 </linearGradient>
 <path d="m257 5.24c-.784.02-28.293 5.244-29.935 5.72-1.656.463-.946 1.71-.946 1.71s31.68-7.45 30.89-7.43z" fill="url(#ian_symbols_ce87bfa15ad4324475b15166392a123e)"/>
 <linearGradient id="ian_symbols_044b6576664abf14e120dd2d752aa94e" y2="-8072.3" gradientUnits="userSpaceOnUse" x2="-7911.7" gradientTransform="matrix(7.0321 -3.5876 3.2374 7.2089 82046 29812)" y1="-8072.3" x1="-7915.6">
  <stop stop-color="#8D846D" offset=".0337"/>
  <stop stop-color="#877968" offset="1"/>
 </linearGradient>
 <path d="m278.5 7.342c-.783-.02-28.307 4.183-30.002 4.622-1.676.436-1.21 1.923-1.21 1.923s31.98-6.525 31.21-6.545z" fill="url(#ian_symbols_044b6576664abf14e120dd2d752aa94e)"/>
 <linearGradient id="ian_symbols_82830b5acc37a1b4491a69a36e8cffae" y2="-8071.2" gradientUnits="userSpaceOnUse" x2="-7910.3" gradientTransform="matrix(7.0321 -3.5876 3.2374 7.2089 82046 29812)" y1="-8071.2" x1="-7914.3">
  <stop stop-color="#8D846D" offset=".0337"/>
  <stop stop-color="#877968" offset="1"/>
 </linearGradient>
 <path d="m291.57 10.721c-.771-.021-28.307 4.183-29.996 4.612-1.676.436-1.216 1.933-1.216 1.933s32-6.522 31.22-6.545z" fill="url(#ian_symbols_82830b5acc37a1b4491a69a36e8cffae)"/>
 <linearGradient id="ian_symbols_59b64c9fe7ed8c3481eaa2f46f8edba0" y2="-8070.7" gradientUnits="userSpaceOnUse" x2="-7909" gradientTransform="matrix(7.9732 -4.0612 3.6746 8.1682 93022 33812)" y1="-8070.7" x1="-7913">
  <stop stop-color="#8D846D" offset=".0337"/>
  <stop stop-color="#877968" offset="1"/>
 </linearGradient>
 <path d="m307.18 14.089c-.864-.034-32.104 4.733-34.017 5.23-1.912.476-1.372 2.169-1.372 2.169s36.26-7.365 35.39-7.399z" fill="url(#ian_symbols_59b64c9fe7ed8c3481eaa2f46f8edba0)"/>
 <linearGradient id="ian_symbols_6f518c0c9d7d584499f4b8cb0bba3bd7" y2="-8069.6" gradientUnits="userSpaceOnUse" x2="-7908" gradientTransform="matrix(7.9732 -4.0612 3.6746 8.1682 93022 33812)" y1="-8069.6" x1="-7911.9">
  <stop stop-color="#8D846D" offset=".0337"/>
  <stop stop-color="#877968" offset="1"/>
 </linearGradient>
 <path d="m319.4 18.303c-.858-.021-32.098 4.733-34.01 5.22-1.913.5-1.372 2.189-1.372 2.189s36.26-7.365 35.38-7.409z" fill="url(#ian_symbols_6f518c0c9d7d584499f4b8cb0bba3bd7)"/>
 <linearGradient id="ian_symbols_558f66cb9193430419fb776f4bc9cb00" y2="-8068.9" gradientUnits="userSpaceOnUse" x2="-7907.4" gradientTransform="matrix(8.5277 -3.635 4.3629 8.1604 1.0296e5 37120)" y1="-8068.9" x1="-7911.3">
  <stop stop-color="#8D846D" offset=".0337"/>
  <stop stop-color="#877968" offset="1"/>
 </linearGradient>
 <path d="m331.64 22.938c-.953-.064-34.854 3.25-36.909 3.659-2.067.396-1.412 2.071-1.412 2.071s39.27-5.652 38.32-5.73z" fill="url(#ian_symbols_558f66cb9193430419fb776f4bc9cb00)"/>
 <linearGradient id="ian_symbols_30a49e073306d8c4290ff7c73ffb13ec" y2="-8067.9" gradientUnits="userSpaceOnUse" x2="-7906.8" gradientTransform="matrix(8.5277 -3.635 4.3629 8.1604 1.0296e5 37120)" y1="-8067.9" x1="-7910.7">
  <stop stop-color="#8D846D" offset=".0337"/>
  <stop stop-color="#877968" offset="1"/>
 </linearGradient>
 <path d="m340.92 28.415c-.952-.061-34.841 3.264-36.902 3.666-2.067.389-1.405 2.068-1.405 2.068s39.26-5.653 38.3-5.734z" fill="url(#ian_symbols_30a49e073306d8c4290ff7c73ffb13ec)"/>
 <linearGradient id="ian_symbols_70c5f6fcde0e4aa4417db85974036c3a" y2="-8066.8" gradientUnits="userSpaceOnUse" x2="-7905.9" gradientTransform="matrix(8.7071 -3.1815 3.9277 8.3786 1.0087e5 42466)" y1="-8066.8" x1="-7909.9">
  <stop stop-color="#8D846D" offset=".0337"/>
  <stop stop-color="#877968" offset="1"/>
 </linearGradient>
 <path d="m351.16 35.352c-.946-.118-34.977 1.409-37.051 1.709-2.081.281-1.514 1.994-1.514 1.994s39.51-3.585 38.56-3.703z" fill="url(#ian_symbols_70c5f6fcde0e4aa4417db85974036c3a)"/>
 <linearGradient id="ian_symbols_21e4deeb4776ea04552902010b692d38" y2="-8065.8" gradientUnits="userSpaceOnUse" x2="-7905.1" gradientTransform="matrix(8.7071 -3.1815 3.9277 8.3786 1.0087e5 42466)" y1="-8065.8" x1="-7909.1">
  <stop stop-color="#8D846D" offset=".0337"/>
  <stop stop-color="#877968" offset="1"/>
 </linearGradient>
 <path d="m361.7 40.832c-.946-.108-34.977 1.409-37.058 1.713-2.082.28-1.514 1.994-1.514 1.994s39.51-3.589 38.57-3.707z" fill="url(#ian_symbols_21e4deeb4776ea04552902010b692d38)"/>
 <linearGradient id="ian_symbols_665282411f01c9a4718f51c09cf3fa04" y2="-8065" gradientUnits="userSpaceOnUse" x2="-7904.4" gradientTransform="matrix(8.7071 -3.1815 3.9277 8.3786 1.0087e5 42466)" y1="-8065" x1="-7908.4">
  <stop stop-color="#8D846D" offset=".0337"/>
  <stop stop-color="#877968" offset="1"/>
 </linearGradient>
 <path d="m371.4 45.89c-.945-.118-34.97 1.419-37.05 1.7-2.075.304-1.515 2.007-1.515 2.007s39.5-3.589 38.56-3.707z" fill="url(#ian_symbols_665282411f01c9a4718f51c09cf3fa04)"/>
 <linearGradient id="ian_symbols_06e819b3230877e4b1622ef30fa6f68a" y2="-8063.9" gradientUnits="userSpaceOnUse" x2="-7903.7" gradientTransform="matrix(8.7071 -3.1815 3.9277 8.3786 1.0087e5 42466)" y1="-8063.9" x1="-7907.7">
  <stop stop-color="#8D846D" offset=".0337"/>
  <stop stop-color="#877968" offset="1"/>
 </linearGradient>
 <path d="m381.53 52.215c-.96-.118-34.977 1.419-37.059 1.703-2.08.304-1.52 2.004-1.52 2.004s39.52-3.586 38.58-3.707z" fill="url(#ian_symbols_06e819b3230877e4b1622ef30fa6f68a)"/>
 <linearGradient id="ian_symbols_23b50ecb383a0aa4a1c79a4483e10700" y2="94.142" gradientUnits="userSpaceOnUse" x2="499.89" y1="94.142" x1="400.06">
  <stop stop-color="#DFB354" offset=".0169"/>
  <stop stop-color="#D8A35A" offset=".3371"/>
  <stop stop-color="#9C7942" offset="1"/>
 </linearGradient>
 <path stroke="#545347" stroke-width=".2107" d="m493.99 47.829c-3.23.25-73.001 4.919-78.002 5.893-5.021.973-7.771.098-10.548 2.122-2.778 2.017-7.609 53.941-4.217 55.651 3.386 1.723 21.286 6.588 29.922 9.707 8.67 3.102 40.078 19.975 40.923 19.387.831-.581-1.264-4.916-1.264-5.893 0-.993 2.412-3.615 2.527-5.067.102-1.43-1.913-3.943-3.798-5.055-1.893-1.108-9.271-5.19-8.845-5.906.398-.717 7.467 2.946 8 2.946.541.01 1.365-1.96.42-2.946-.927-.973-16.921-10.336-16.016-10.116.898.203 14.163 6.717 14.751 6.734.595.033 1.162-2.294 1.265-3.365.121-1.064-2.393-5.538-3.366-6.328-.979-.781-17.521-5.251-16.859-5.903.642-.648 15.042 3.673 15.589 2.946.562-.716.041-2.598.427-3.365.392-.76-7.325-.456-6.751-1.271.581-.797 6.933-.084 7.176-.841.23-.75.284-2.896 0-3.791-.29-.889-26.591-2.754-26.57-3.791.007-1.041 28.767 1.361 29.091.405.338-.926-4.561-1.75-4.216-2.521.345-.767 5.169-1.659 5.905-2.524.75-.865-8.264.345-9.271 0-1.013-.344 10.589-2.524 10.961-3.378.365-.858-15.887 2.034-18.13 2.112-2.251.074-12.068-.247-10.961-.845 1.089-.595 29.679-3.629 30.361-4.217.676-.581.217-2.163.838-2.953.615-.791-6.603-.118-5.899-.848.696-.723 5.967-.797 7.149-1.679 1.21-.885 2.574-2.878 4.23-4.642 1.648-1.757 6.865-3.74 9.277-5.903 2.413-2.159 7.576-8.193 8.009-8.862.445-.652-3.474-.132-5.056 0-1.588.128 8.799-3.939 8.853-5.048.08-1.123-2.66-1.099-5.89-.839z" fill="url(#ian_symbols_23b50ecb383a0aa4a1c79a4483e10700)"/>
 <linearGradient id="ian_symbols_4b8b1f6b2747fdf45d43f6deca56dca8" y2="-8059" gradientUnits="userSpaceOnUse" x2="-7881.8" gradientTransform="matrix(15.992 -3.8533 7.7643 9.8415 1.8908e5 48991)" y1="-8056.8" x1="-7884.1">
  <stop stop-color="#846938" offset=".0337"/>
  <stop stop-color="#9F906D" offset="1"/>
 </linearGradient>
 <path opacity=".71" d="m490.19 56.678c-2.209.023-73.23 12.532-77.305 13.701-4.068 1.192-1.548 2.318-1.548 2.318s81.07-16.029 78.86-16.019z" fill="url(#ian_symbols_4b8b1f6b2747fdf45d43f6deca56dca8)"/>
 <linearGradient id="ian_symbols_39e344869e0fdcf4d16099714d23fc2b" y2="-8059.1" gradientUnits="userSpaceOnUse" x2="-7881.8" gradientTransform="matrix(16.156 -3.2721 7.9501 8.7986 1.9187e5 45162)" y1="-8056.8" x1="-7884">
  <stop stop-color="#846938" offset=".0337"/>
  <stop stop-color="#9F906D" offset="1"/>
 </linearGradient>
 <path opacity=".71" d="m491.04 50.775c-2.229 0-74.021 10.44-78.143 11.458-4.108 1.01-1.541 2.041-1.541 2.041s81.9-13.488 79.68-13.499z" fill="url(#ian_symbols_39e344869e0fdcf4d16099714d23fc2b)"/>
 <linearGradient id="ian_symbols_ff9a7f0911850044b92777188b9bccca" y2="-8058.2" gradientUnits="userSpaceOnUse" x2="-7882.6" gradientTransform="matrix(15.675 -3.3155 7.6895 8.7963 1.8598e5 44804)" y1="-8055.9" x1="-7884.9">
  <stop stop-color="#846938" offset=".0337"/>
  <stop stop-color="#9F906D" offset="1"/>
 </linearGradient>
 <path opacity=".71" d="m485.13 63.425c-2.149 0-71.812 10.636-75.792 11.657-4 1.014-1.521 2.058-1.521 2.058s79.47-13.715 77.31-13.715z" fill="url(#ian_symbols_ff9a7f0911850044b92777188b9bccca)"/>
 <linearGradient id="ian_symbols_3d087077215bdaa40185543d1ff6a570" y2="-8057.3" gradientUnits="userSpaceOnUse" x2="-7883.5" gradientTransform="matrix(15.368 -2.8398 7.609 7.8671 1.8291e5 41063)" y1="-8055" x1="-7885.8">
  <stop stop-color="#846938" offset=".0337"/>
  <stop stop-color="#9F906D" offset="1"/>
 </linearGradient>
 <path opacity=".71" d="m478.81 69.328c-2.122-.01-70.433 8.96-74.346 9.849-3.905.885-1.466 1.808-1.466 1.808s77.95-11.633 75.82-11.657z" fill="url(#ian_symbols_3d087077215bdaa40185543d1ff6a570)"/>
 <linearGradient id="ian_symbols_76ec77f271dfc7c4dd7d56dafac4b0fb" y2="-8056.5" gradientUnits="userSpaceOnUse" x2="-7884.6" gradientTransform="matrix(13.891 -1.866 6.3987 7.5575 1.6152e5 46244)" y1="-8054.2" x1="-7886.9">
  <stop stop-color="#846938" offset=".0337"/>
  <stop stop-color="#9F906D" offset="1"/>
 </linearGradient>
 <path opacity=".71" d="m469.79 76.498c-1.879-.118-63.445 4.842-66.986 5.463-3.554.615-1.412 1.591-1.412 1.591s70.29-6.929 68.4-7.054z" fill="url(#ian_symbols_76ec77f271dfc7c4dd7d56dafac4b0fb)"/>
 <linearGradient id="ian_symbols_9d722a5d4d3cb464513104ecff315e19" y2="-8055.4" gradientUnits="userSpaceOnUse" x2="-7885.2" gradientTransform="matrix(13.985 -.9248 5.8743 7.9719 1.5803e5 57002)" y1="-8053.1" x1="-7887.5">
  <stop stop-color="#846938" offset=".0337"/>
  <stop stop-color="#9F906D" offset="1"/>
 </linearGradient>
 <path opacity=".71" d="m467.42 86.843c-1.871-.24-63.642.564-67.216.933-3.581.389-1.514 1.493-1.514 1.493s70.62-2.172 68.73-2.426z" fill="url(#ian_symbols_9d722a5d4d3cb464513104ecff315e19)"/>
 <linearGradient id="ian_symbols_7021537b2df40f84052b4bd702817777" y2="-8051.8" gradientUnits="userSpaceOnUse" x2="-7885.3" gradientTransform="matrix(12.618 5.2946 2.2653 9.0329 1.1819e5 1.1459e5)" y1="-8049.6" x1="-7887.5">
  <stop stop-color="#846938" offset=".0337"/>
  <stop stop-color="#9F906D" offset="1"/>
 </linearGradient>
 <path opacity=".71" d="m470.52 127.02c-1.568-1.007-56.094-27.07-59.371-28.304-3.291-1.247-1.872.554-1.872.554s62.8 28.76 61.24 27.75z" fill="url(#ian_symbols_7021537b2df40f84052b4bd702817777)"/>
 <linearGradient id="ian_symbols_83debf4baef4b1540555f104b6850d50" y2="-8051" gradientUnits="userSpaceOnUse" x2="-7885.4" gradientTransform="matrix(12.207 6.1826 1.6142 9.1716 1.0971e5 1.2271e5)" y1="-8048.7" x1="-7887.7">
  <stop stop-color="#846938" offset=".0337"/>
  <stop stop-color="#9F906D" offset="1"/>
 </linearGradient>
 <path opacity=".71" d="m467.75 134.68c-1.487-1.126-54.026-31.011-57.196-32.483-3.188-1.463-1.904.422-1.904.422s60.58 33.17 59.1 32.06z" fill="url(#ian_symbols_83debf4baef4b1540555f104b6850d50)"/>
 <linearGradient id="ian_symbols_c0e900bec835c8a4fde8f61d9cadda27" y2="-8053.2" gradientUnits="userSpaceOnUse" x2="-7885.2" gradientTransform="matrix(12.41 4.5697 1.4996 9.5319 1.1038e5 1.129e5)" y1="-8050.9" x1="-7887.5">
  <stop stop-color="#846938" offset=".0337"/>
  <stop stop-color="#9F906D" offset="1"/>
 </linearGradient>
 <path opacity=".71" d="m465.46 119c-1.508-.943-54.851-24.121-58.087-25.162-3.237-1.04-1.96.781-1.96.781s61.55 25.341 60.05 24.381z" fill="url(#ian_symbols_c0e900bec835c8a4fde8f61d9cadda27)"/>
 <linearGradient id="ian_symbols_5086c5178ea12544791f938b96826a9b" y2="-8053.6" gradientUnits="userSpaceOnUse" x2="-7885.8" gradientTransform="matrix(10.749 2.5986 1.8628 8.0582 1.0022e5 85486)" y1="-8051.3" x1="-7888.1">
  <stop stop-color="#846938" offset=".0337"/>
  <stop stop-color="#9F906D" offset="1"/>
 </linearGradient>
 <path opacity=".71" d="m466.96 109.59c-1.331-.652-47.762-14.863-50.553-15.407-2.791-.547-1.602.872-1.602.872s53.48 15.205 52.15 14.535z" fill="url(#ian_symbols_5086c5178ea12544791f938b96826a9b)"/>
 <linearGradient id="ian_symbols_7cd5d79f6c4243c4ada664ca765e8ae7" y2="-8055.1" gradientUnits="userSpaceOnUse" x2="-7886.5" gradientTransform="matrix(11.038 .6751 3.2459 7.6072 1.1364e5 66686)" y1="-8052.8" x1="-7888.8">
  <stop stop-color="#846938" offset=".0337"/>
  <stop stop-color="#9F906D" offset="1"/>
 </linearGradient>
 <path opacity=".71" d="m462.37 96.02c-1.425-.412-49.62-6.274-52.479-6.315-2.83-.054-1.418 1.136-1.418 1.136s55.33 5.588 53.9 5.179z" fill="url(#ian_symbols_7cd5d79f6c4243c4ada664ca765e8ae7)"/>
 <linearGradient id="ian_symbols_49d32901353ca7c4b57175d3d64518b8" y2="119.29" gradientUnits="userSpaceOnUse" x2="383.51" y1="119.29" x1="296.2">
  <stop stop-color="#DDCC96" offset="0"/>
  <stop stop-color="#C4AC8D" offset=".5"/>
  <stop stop-color="#AD9853" offset="1"/>
 </linearGradient>
 <path opacity=".8" stroke="#545347" stroke-width=".2107" d="m296.2 131.32s20.259.845 29.529 2.102c9.272 1.277 15.185-.834 21.51-1.257 6.325-.419 24.881-11.383 28.672-14.751 3.797-3.379 7.595-12.65 7.595-12.65l-34.57 4.203-52.73 22.36z" fill="url(#ian_symbols_49d32901353ca7c4b57175d3d64518b8)"/>
 <linearGradient id="ian_symbols_6bd92070465d11c4bda022efc1b75fe7" y2="-8042.7" gradientUnits="userSpaceOnUse" x2="-7903.1" gradientTransform="matrix(7.6752 -6.5057 6.7004 7.6838 1.1491e5 10486)" y1="-8042.7" x1="-7906.7">
  <stop stop-color="#DFC882" offset=".0337"/>
  <stop stop-color="#9F906D" offset="1"/>
 </linearGradient>
 <path d="m377.85 114.67c-1.149-.271-42.957-1.159-45.539-.898-2.574.25-1.702 1.321-1.702 1.321s48.38-.15 47.24-.42z" fill="url(#ian_symbols_6bd92070465d11c4bda022efc1b75fe7)"/>
 <linearGradient id="ian_symbols_7563a132f5cb1fa4959d49cbb3956a01" y2="-8042.5" gradientUnits="userSpaceOnUse" x2="-7903.6" gradientTransform="matrix(7.6752 -6.5057 6.7004 7.6838 1.1491e5 10486)" y1="-8042.5" x1="-7907.2">
  <stop stop-color="#DFC882" offset=".0337"/>
  <stop stop-color="#9F906D" offset="1"/>
 </linearGradient>
 <path d="m375.32 119.32c-1.156-.284-42.964-1.169-45.538-.909-2.582.257-1.717 1.321-1.717 1.321s48.41-.15 47.26-.41z" fill="url(#ian_symbols_7563a132f5cb1fa4959d49cbb3956a01)"/>
 <linearGradient id="ian_symbols_e6b0ebf10036f03469458502f34b2988" y2="-8042.6" gradientUnits="userSpaceOnUse" x2="-7904.3" gradientTransform="matrix(7.6752 -6.5057 6.7004 7.6838 1.1491e5 10486)" y1="-8042.6" x1="-7907.9">
  <stop stop-color="#DFC882" offset=".0337"/>
  <stop stop-color="#9F906D" offset="1"/>
 </linearGradient>
 <path d="m368.58 122.67c-1.155-.26-42.957-1.146-45.552-.885-2.568.236-1.703 1.321-1.703 1.321s48.39-.14 47.25-.43z" fill="url(#ian_symbols_e6b0ebf10036f03469458502f34b2988)"/>
 <linearGradient id="ian_symbols_63ccb62ef65e17b455def533a9bff947" y2="-8043" gradientUnits="userSpaceOnUse" x2="-7905.3" gradientTransform="matrix(7.6752 -6.5057 6.7004 7.6838 1.1491e5 10486)" y1="-8043" x1="-7908.8">
  <stop stop-color="#DFC882" offset=".0337"/>
  <stop stop-color="#9F906D" offset="1"/>
 </linearGradient>
 <path d="m359.3 126.05c-1.162-.271-42.957-1.146-45.552-.898-2.567.25-1.703 1.321-1.703 1.321s48.39-.13 47.25-.42z" fill="url(#ian_symbols_63ccb62ef65e17b455def533a9bff947)"/>
 <linearGradient id="ian_symbols_4f5c8c29a74707842d7ca5ed9a1e62df" y2="-8043.3" gradientUnits="userSpaceOnUse" x2="-7906.1" gradientTransform="matrix(7.6752 -6.5057 6.7004 7.6838 1.1491e5 10486)" y1="-8043.3" x1="-7909.7">
  <stop stop-color="#DFC882" offset=".0337"/>
  <stop stop-color="#9F906D" offset="1"/>
 </linearGradient>
 <path d="m350.87 129.43c-1.154-.277-42.97-1.159-45.545-.909-2.581.261-1.709 1.321-1.709 1.321s48.4-.14 47.26-.41z" fill="url(#ian_symbols_4f5c8c29a74707842d7ca5ed9a1e62df)"/>
 <linearGradient id="ian_symbols_d076b046833c37847db15e7bca7948b4" y2="137.06" gradientUnits="userSpaceOnUse" x2="238.87" y1="137.06" x1="162.54">
  <stop stop-color="#DDCC96" offset="0"/>
  <stop stop-color="#C4AC8D" offset=".5"/>
  <stop stop-color="#AD9853" offset="1"/>
 </linearGradient>
 <path opacity=".8" stroke="#545347" stroke-width=".2107" d="m168.45 140.59c5.054 4.649 11.379 8.019 16.44 9.285 5.062 1.267 12.65 2.523 16.88 2.112 4.209-.42 14.751-3.379 14.751-3.379s-14.751-2.102-21.083-3.369c-6.325-1.271-10.548-5.062-10.548-5.062s19.4 5.483 27.415 5.893c8.021.437 13.92-1.254 18.13-1.254s8.44-2.111 8.44-2.111-6.325-3.368-9.285-5.058c-2.953-1.689-5.899-5.062-8.434-5.484-2.527-.419-13.488-.419-16.867-2.533-3.372-2.102-12.23-6.737-12.23-6.737l-24.037-.845-5.48 12.217c.01-.02.86 1.68 5.92 6.31z" fill="url(#ian_symbols_d076b046833c37847db15e7bca7948b4)"/>
 <linearGradient id="ian_symbols_47f52b79b5bf04c40937cf3a65d5722f" y2="23.382" gradientUnits="userSpaceOnUse" x2="410.03" y1="129.54" x1="13.831">
  <stop stop-color="#F7F7EB" offset=".0449"/>
  <stop stop-color="#BBC0BB" offset=".1517"/>
  <stop stop-color="#C1C4B8" offset=".2753"/>
  <stop stop-color="#F8EEA1" offset=".4101"/>
  <stop stop-color="#BFDCF1" offset=".5618"/>
  <stop stop-color="#97AFD8" offset=".7865"/>
  <stop stop-color="#C1D0E8" offset="1"/>
 </linearGradient>
 <path stroke="#545347" stroke-width=".2107" d="m6.936 68.909c-.426-2.102 10.116-8.015 15.185-9.704 5.061-1.683 11.805-3.794 15.603-5.051 3.784-1.267 8.858-8.437 12.224-10.129 3.385-1.676 7.595-1.676 10.102-2.108 2.547-.412 22.793-8.853 27.436-11.805 4.628-2.95 22.766-11.376 29.929-13.91 7.176-2.534 23.191-10.116 32.895-11.806 9.704-1.689 17.292.412 26.151 1.689 8.845 1.257 20.657-.845 34.578 1.257 13.914 2.108 40.065 3.379 59.452 9.704 19.4 6.325 31.199 11.369 47.66 19.387 16.44 8.018 42.166 19.823 51.438 21.513 9.277 1.689 14.758 1.26 21.935 1.689 7.17.413 12.23-5.068 16.86-4.632 4.635.409 7.602-.848 10.96 5.48 3.379 6.325 2.541 9.694 1.696 23.614-.845 13.903-7.176 23.607-8.434 25.709-1.264 2.115-3.372 2.96-7.169 2.96-3.805 0-10.123-4.636-26.571-4.214-16.44.412-31.198 5.903-36.679 8.015-5.48 2.102-15.609 5.048-15.609 5.048s-.846 3.379-6.325 6.761c-5.48 3.368-23.191 4.632-32.882 5.889-9.71 1.281-20.671-.845-23.205-.408-2.527.408-3.791.841-8.433.408-4.629-.408-35.409-6.736-50.181-7.581-14.765-.845-24.029-2.946-29.51-.845-5.486 2.102-10.548 3.791-10.548 6.747 0 2.96 6.744 10.964 6.744 10.964s-13.075-9.285-16.022-11.806c-2.953-2.527-5.055-5.061-5.055-5.061s-18.556-.845-33.746-3.379c-15.171-2.524-31.199-5.059-46.795-9.271-15.61-4.227-37.957-14.343-47.242-17.722-9.271-3.354-18.549-8.004-20.225-9.683-1.696-1.689-2.966-8.447-2.966-8.447l46.822 12.238c-.036-.018-39.696-19.418-40.108-21.527z" fill="url(#ian_symbols_47f52b79b5bf04c40937cf3a65d5722f)"/>
 <radialGradient id="ian_symbols_a956126b151a6594fdfe8561ce24f29e" gradientUnits="userSpaceOnUse" cy="93.164" cx="243.94" gradientTransform="matrix(1.059 0 0 1.0447 -16.814 -10.531)" r="41.242">
  <stop stop-color="#F7FAFC" offset=".0056"/>
  <stop stop-color="#BFDCF1" offset="1"/>
 </radialGradient>
 <path d="m237.52 40.788c-8.879-.713-22.286 13.822-28.267 19.542-9.487 9.075-10.623 29.104-4.034 40.464 5.48 9.48 14.914 14.146 22.942 20.914 8.156 6.882 19.968 13.64 31.821 10.193 7.345-2.132 15.156-10.623 18.771-16.809 3.677-6.258 3.541-15.9 2.832-23.061-.736-7.439-5.994-16.15-9.231-23.026-5.203-11.018-14.806-20.073-24.705-27.036l-10.12-1.169z" fill="url(#ian_symbols_a956126b151a6594fdfe8561ce24f29e)"/>
 <linearGradient id="ian_symbols_14a9024b12c992e46562169fc69a9cba" y2="9.9577" gradientUnits="userSpaceOnUse" x2="406.44" y1="113.78" x1="18.958">
  <stop stop-color="#56502C" offset=".0056"/>
  <stop stop-color="#9A9178" offset=".5843"/>
  <stop stop-color="#8D846D" offset="1"/>
 </linearGradient>
 <path d="m419.34 60.482c-3.358-6.328-6.325-5.071-10.96-5.48-4.63-.436-9.69 5.044-16.86 4.632-7.177-.429-12.657 0-21.935-1.689-9.271-1.689-34.997-13.495-51.438-21.513-16.461-8.018-28.26-13.062-47.66-19.387-19.387-6.325-45.539-7.596-59.452-9.704-13.92-2.102-25.732 0-34.578-1.257-8.859-1.277-16.448-3.378-26.151-1.689-9.704 1.689-25.719 9.271-32.895 11.806-7.163 2.534-25.3 10.96-29.929 13.91-4.643 2.953-24.888 11.393-27.436 11.805-2.507.433-6.717.433-10.102 2.108-3.366 1.692-8.44 8.862-12.224 10.129-3.798 1.257-10.542 3.369-15.603 5.051-5.068 1.689-15.61 7.602-15.185 9.704.095.476 2.122 1.787 5.21 3.551 33.591 7.93 70.223-4.872 103.58-13.768 16.029-5.058 32.896-7.592 51.445-4.21 16.028 2.531 32.057 12.65 46.396 5.903 21.921-9.285 45.531-10.129 68.317-5.903 47.208 9.443 93.198 23.851 139.39 25.851.73-10.838 1.13-14.143-1.93-19.85z" fill="url(#ian_symbols_14a9024b12c992e46562169fc69a9cba)"/>
 <linearGradient id="ian_symbols_9617f8b492a360b44db4a35de6f4ac84" y2="88.313" gradientUnits="userSpaceOnUse" x2="53.332" y1="88.313" x1=".105">
  <stop stop-color="#73748B" offset=".0056"/>
  <stop stop-color="#87899B" offset=".5112"/>
  <stop stop-color="#A0ACB1" offset="1"/>
 </linearGradient>
 <path stroke="#545347" stroke-width=".2107" d="m.186 78.18c-.426 2.531.844 4.22 3.804 5.491 2.946 1.267 23.61 7.16 28.671 8.436 5.062 1.261 11.38 6.741 13.495 8.431 2.102 1.689 7.176 0 7.176 0s-8.021-11.387-9.703-11.387c-1.696 0-13.501-5.902-16.448-7.592-2.96-1.689-9.285-2.102-10.961-2.538-1.689-.412-3.378 0-4.648 0-1.264 0-3.366-2.524-5.062-3.365-1.682-.850-5.899-.002-6.324 2.522z" fill="url(#ian_symbols_9617f8b492a360b44db4a35de6f4ac84)"/>
 <linearGradient id="ian_symbols_57e089c0543270641da913bd6bf91c46" y2="84.274" gradientUnits="userSpaceOnUse" x2="57.584" y1="84.274" x1="7.7363">
  <stop stop-color="#87899B" offset=".0899"/>
  <stop stop-color="#ADA7A6" offset=".6067"/>
  <stop stop-color="#A7A9AB" offset="1"/>
 </linearGradient>
 <path stroke="#545347" stroke-width=".2107" d="m7.78 70.595c1.264-1.267 2.946-2.943 6.325-2.534 3.365.426 5.061.426 10.542 2.534 5.48 2.102 29.516 11.805 30.773 13.907 1.277 2.125 1.696 5.917 2.122 8.454.426 2.523-2.534 7.156-4.21 7.582-1.696.422-12.656-9.707-16.454-12.65-3.797-2.952-30.368-16.038-29.098-17.295z" fill="url(#ian_symbols_57e089c0543270641da913bd6bf91c46)"/>
 <linearGradient id="ian_symbols_af7eb0c2082d09c4617da110991b81a8" y2="55.626" gradientUnits="userSpaceOnUse" x2="92.431" y1="55.626" x1="6.9238">
  <stop stop-color="#222C30" offset=".0112"/>
  <stop stop-color="#595759" offset=".5112"/>
  <stop stop-color="#53434B" offset="1"/>
 </linearGradient>
 <path d="m22.12 67.216c4.095-.064 7.014.564 11.399-.409 3.96-.902 6.528-2.125 10.846-2.112 4.014 0 7.467-.271 11.17-1.162 7.433-1.798 13.346-5.261 21.306-6.011 6.939-.652 17.826-.855 15.184-10.548-1.682-6.237-11.487-7.812-15.616-4.419-1.547 1.267-1.487 3.412-3.25 4.47-1.5.913-3.264.196-5.082.804-3.521 1.156-5.197 2.439-9.67 2.524-4.717.095-5.406 1.916-8.893 4.193-2.73 1.784-6.399 1.754-9.373 3.183-2.021.986-2.163 1.581-4.623 1.905-1.784.237-4.122-.564-5.805 0-1.743.575-2.757 1.973-4.663 2.524-1.534.446-3.838.014-5.466.014l-3.061-.521c-4.812 2.446-9.879 5.785-9.589 7.258.055.26.71.797 1.838 1.537.494-.479 1.851-1.801 2.027-1.875 2.515-1.243 8.536-1.311 11.321-1.355z" fill="url(#ian_symbols_af7eb0c2082d09c4617da110991b81a8)"/>
 <linearGradient id="ian_symbols_3f33da0ce7f5e6742514b535daaea08f" y2="45.732" gradientUnits="userSpaceOnUse" x2="52.921" y1="67.118" x1="54.792">
  <stop stop-color="#959390" offset=".1236"/>
  <stop stop-color="#946C46" offset=".3596"/>
  <stop stop-color="#959390" offset=".5955"/>
  <stop stop-color="#7A5C43" offset=".7978"/>
  <stop stop-color="#5B461D" offset="1"/>
 </linearGradient>
 <path stroke="#545347" stroke-width=".2107" d="m55.008 45.717c8.014.422 9.704 3.805 9.704 10.539 0 6.75-4.663 10.96-11.806 10.96-7.169 0-9.704-6.734-10.13-11.805-.418-5.058 4.232-10.116 12.232-9.694z" fill="url(#ian_symbols_3f33da0ce7f5e6742514b535daaea08f)"/>
 <linearGradient id="ian_symbols_5a762f2e8c05d984116c7bb362fccdc1" y2="55.371" gradientUnits="userSpaceOnUse" x2="61.327" y1="55.371" x1="43.629">
  <stop stop-color="#AD7A46" offset=".1011"/>
  <stop stop-color="#C1C4B8" offset=".9607"/>
 </linearGradient>
 <path stroke="#545347" stroke-width=".2107" d="m53.738 62.584c7.589.841 7.589-3.791 7.589-8.018 0-4.213-2.514-5.044-5.906-6.325-3.358-1.257-11.792 4.224-11.792 7.17 0 2.956 2.527 6.325 10.109 7.173z" fill="url(#ian_symbols_5a762f2e8c05d984116c7bb362fccdc1)"/>
 <linearGradient id="ian_symbols_b03a8b80d83085e491b04192ad1e5a35" y2="55.321" gradientUnits="userSpaceOnUse" x2="60.622" y1="55.321" x1="47.283">
  <stop stop-color="#284245" offset=".1236"/>
  <stop stop-color="#10282B" offset=".9607"/>
 </linearGradient>
 <path stroke="#545347" stroke-width=".2107" d="m47.413 54.566c.844-2.102 5.494-4.213 9.285-3.369 3.791.845 4.216 3.805 3.791 5.058-.439 1.267-3.791 3.378-5.48 3.378-1.676 0-2.52-1.267-3.791-1.689-1.271-.421-4.636-1.266-3.805-3.378z" fill="url(#ian_symbols_b03a8b80d83085e491b04192ad1e5a35)"/>
 <linearGradient id="ian_symbols_13561877631f9e04ad0f73ef5f4729d9" y2="97.52" gradientUnits="userSpaceOnUse" x2="131.61" y1="97.52" x1="81.152">
  <stop stop-color="#6E747B" offset=".0337"/>
  <stop stop-color="#CCC5B0" offset="1"/>
 </linearGradient>
 <path d="m131.34 77.346c-1.27 1.264-4.642 7.156-5.906 8.852-1.27 1.689-2.541 2.108-4.643 3.784-2.107 1.696-17.299 16.032-21.502 18.147-4.216 2.111-18.137 7.592-18.137 7.592l10.542 2.102s15.609-11.809 20.238-15.596c4.643-3.791 12.231-10.961 14.765-14.34 2.52-3.378 5.9-11.801 4.64-10.534z" fill="url(#ian_symbols_13561877631f9e04ad0f73ef5f4729d9)"/>
 <path opacity=".8" stroke="#545347" stroke-width=".2107" d="m141.45 77.346c.852-2.538 18.563-20.667 18.563-20.667h2.953s2.102 2.115 4.21 4.646c2.115 2.524 3.379 4.203 2.541 8.427-.845 4.227-1.697 10.96 0 16.035 1.675 5.045 5.054 15.174 6.744 17.698 1.682 2.53 6.744 7.602 8 11.39 1.271 3.794 4.649 14.342 5.068 16.443s-2.527 3.791-4.224 5.059c-1.683 1.271-13.914 1.689-16.434 2.111-2.534.426-10.541-10.548-12.657-14.339-2.108-3.791-8.014-19.388-8.859-22.766-.845-3.383-2.102-7.174-1.257-9.275.824-2.125-3.798-6.321-4.649-8.858-.84-2.526-.84-3.367.01-5.891z" fill="#F5F2C9"/>
 <linearGradient id="ian_symbols_2d78732080e4ad54c92693a4fa0bbea5" y2="68.924" gradientUnits="userSpaceOnUse" x2="162.28" y1="68.924" x1="140.83">
  <stop stop-color="#C4AC8D" offset=".0618"/>
  <stop stop-color="#AD9853" offset="1"/>
 </linearGradient>
 <path opacity=".8" stroke="#545347" stroke-width=".2107" d="m152.84 67.973c2.879-2.882 5.757-7.71 9.44-11.295h-2.264s-17.711 18.13-18.563 20.667c-.561 1.676-.73 2.632-.547 3.825 5.19-3.067 8.24-8.774 11.93-13.197z" fill="url(#ian_symbols_2d78732080e4ad54c92693a4fa0bbea5)"/>
 <linearGradient id="ian_symbols_41f70ebaf0c053d4eda7fa4424f83daa" y2="71.054" gradientUnits="userSpaceOnUse" x2="166.79" y1="71.054" x1="141.21">
  <stop stop-color="#C4AC8D" offset=".0618"/>
  <stop stop-color="#AD9853" offset="1"/>
 </linearGradient>
 <path opacity=".8" stroke="#545347" stroke-width=".2107" d="m164.94 58.793c-3.189 3.832-7.082 7.123-9.575 10.873-3.182 5.564-8.609 8.882-14.164 12.768.075.25.148.521.243.814.021.023.027.043.034.067 1.791-1.084 7.223-5.484 8.372-5.916 6.123-4.94 11.556-10.704 16.934-16.529-.62-.756-1.25-1.472-1.83-2.077z" fill="url(#ian_symbols_41f70ebaf0c053d4eda7fa4424f83daa)"/>
 <linearGradient id="ian_symbols_17ab0258145ed1044d07ff2455c62ae8" y2="74.307" gradientUnits="userSpaceOnUse" x2="169.83" y1="74.307" x1="142.67">
  <stop stop-color="#C4AC8D" offset=".0618"/>
  <stop stop-color="#AD9853" offset="1"/>
 </linearGradient>
 <path opacity=".8" stroke="#545347" stroke-width=".2107" d="m164.65 70.511c3.176-1.277 3.48-4.477 4.163-7.052-.345-.52-.73-1.027-1.176-1.571-2.575 10.18-17.968 15.88-21.131 19.249-3.162 3.365-2.561 2.446-3.844 4.277.291.433.621.868.939 1.311 6.508-7.312 15.731-12.576 25.645-14.306.135-.956.304-1.865.467-2.669.04-.223.074-.456.115-.659-1.4.866-2.96 1.778-5.17 1.42z" fill="url(#ian_symbols_17ab0258145ed1044d07ff2455c62ae8)"/>
 <linearGradient id="ian_symbols_8072459f4401ae84353d6c2b433ba220" y2="81.542" gradientUnits="userSpaceOnUse" x2="169.01" y1="81.542" x1="144.57">
  <stop stop-color="#C4AC8D" offset=".0618"/>
  <stop stop-color="#AD9853" offset="1"/>
 </linearGradient>
 <path opacity=".8" stroke="#545347" stroke-width=".2107" d="m164.65 78.092c2.047 0 3-1.104 4.183-1.98.054-.652.108-1.294.169-1.919-4.48 4.571-12.298 4.507-17.847 7.281-2.317.757-4.237 3.875-6.588 6.605.196.27.378.541.553.811 5.278-7.268 14.867-10.495 23.645-8.731-.033-.771-.033-1.551-.013-2.328-1.37.197-2.73.717-4.1.261z" fill="url(#ian_symbols_8072459f4401ae84353d6c2b433ba220)"/>
 <linearGradient id="ian_symbols_d6b1407ff29f12c4190c824e512faa93" y2="109.79" gradientUnits="userSpaceOnUse" x2="189.57" y1="109.79" x1="145.39">
  <stop stop-color="#C4AC8D" offset=".0618"/>
  <stop stop-color="#AD9853" offset="1"/>
 </linearGradient>
 <path opacity=".8" stroke="#545347" stroke-width=".2107" d="m156.21 101.71c8.44 10.96 17.711 21.086 28.672 30.368.912.611 1.818 1.544 2.689 2.646-.757.604-1.608 1.169-2.271 1.655-.277.22-.878.402-1.676.574-9.852-9.055-17.056-20.772-25.719-31.02 7.034 10.571 13.515 23.516 23.333 31.411-.568.085-1.183.152-1.825.213-8.264-8.314-15.698-17.478-20.678-28.256 3.474 11.099 9.798 21.056 18.508 28.466-1.128.098-2.263.183-3.331.271-9.102-9.1-14.67-20.982-20.238-32.104 3.575 12.119 9.568 23.029 18.468 32.236-1.466.118-2.662.213-3.277.32-2.534.426-10.541-10.548-12.657-14.339-2.108-3.791-8.014-19.388-8.859-22.766-.845-3.383-2.102-7.174-1.257-9.275.284-.736-.088-1.713-.71-2.79-.04-.058 5.014-4.943 9.88-6.633 6.602-2.284 13.569-1.537 13.589-1.301.034.412.088.838.136 1.237-4.684.453-9.657-1.676-14.205 2.122 5.028.632 9.778 1.061 15.15 1.713.628 1.886 1.432 4.291 2.284 6.724-6.312-3.733-13.326-10.383-21.063-4.97 8.339 0 15.705 4.899 22.84 9.825.628 1.655 1.244 3.129 1.764 4.203-7.366-4.193-13.69-12.944-22.083-10.649 3.379 0 6.75 1.689 8.44 4.213 4.581 4.581 10.082 7.011 15.576 9.329 2.196 2.727 5.724 6.648 6.764 9.744 1.271 3.794 4.649 14.342 5.068 16.443.115.599-.041 1.149-.352 1.689-7.893-7.808-14.164-13.274-22.84-21.185-2.5-1.68-5.88-8.42-10.1-10.11zm4.44-1.801c2.101 2.727 8.426 8.221 11.589 9.896 3.169 1.689 8.649 6.761 8.649 6.761s.209-1.692 0-2.956c-.209-1.268-2.527-3.369-4.643-4.855-2.108-1.47-13.495-9.906-16.441-11.806-2.959-1.892-6.541-2.521-6.541-2.521s5.26 2.746 7.38 5.496zm1.89 5.681c2.317 3.162 7.373 8.224 10.339 10.974 2.939 2.73 9.264 5.264 9.264 5.264s-4.845-5.479-6.737-7.169c-1.906-1.689-4.014-2.74-5.689-4.217-1.697-1.48-8.454-7.592-9.495-9.062-1.061-1.474-5.271-2.74-5.271-2.74s5.27 3.8 7.59 6.96z" fill="url(#ian_symbols_d6b1407ff29f12c4190c824e512faa93)"/>
 <linearGradient id="ian_symbols_b30118e16f5d8094c9f431eb62b1fab4" y2="46.755" gradientUnits="userSpaceOnUse" x2="112.24" y1="92.758" x1="108.22">
  <stop stop-color="#84703F" offset=".0112"/>
  <stop stop-color="#7A5C43" offset=".5112"/>
  <stop stop-color="#3A3032" offset="1"/>
 </linearGradient>
 <path d="m104.34 56.256c0-4.406-.095-9.717 5.46-9.694 4.487.01 6.392 5.21 5.5 9.271-.933 4.298-4.082 6.173-4.217 11.406-.081 3.768-.474 9.045 3.304 11.025.122 2.058-.155 4.268.082 6.349.148 1.325 1.621 4.248 1.256 5.369-.493 1.521-2.933 2.744-4.858 2.842-3.379.192-3.048-.176-3.149-4.007-.075-2.298.689-4.508.426-6.738-.318-2.598-1.723-3.987-2.365-6.196-1.224-4.386-1.838-9.075-1.859-13.711l.42-5.916z" fill="url(#ian_symbols_b30118e16f5d8094c9f431eb62b1fab4)"/>
 <linearGradient id="ian_symbols_1e53d21657cb56a48d8bfae24363af74" y2="5.0457" gradientUnits="userSpaceOnUse" x2="240.62" y1="40.376" x1="231.15">
  <stop stop-color="#84703F" offset=".0112"/>
  <stop stop-color="#3E392E" offset=".2921"/>
  <stop stop-color="#2B3035" offset=".6011"/>
  <stop stop-color="#231F27" offset="1"/>
 </linearGradient>
 <path d="m226.22 10.721c-.102-3.564-.25-5.2 2.946-6.325 1.479-.544 7.798-.605 9.204.085 3.757 1.865 2.831 8.396 4.392 12.045 1.683 4.011 3.656 6.801 4.108 11.46.804 8.2-2.838 12.846-7.393 14.231-4.554 1.389-2.649-9.292-5.257-13.258-2.155-3.311-6.899-8.792-6.744-12.758l-1.26-5.48z" fill="url(#ian_symbols_1e53d21657cb56a48d8bfae24363af74)"/>
 <linearGradient id="ian_symbols_f7737e58e98bcf14053d4226a807e266" y2="24.363" gradientUnits="userSpaceOnUse" x2="324.8" y1="124.71" x1="297.91">
  <stop stop-color="#84703F" offset=".0112"/>
  <stop stop-color="#3E392E" offset=".2921"/>
  <stop stop-color="#2B3035" offset=".6011"/>
  <stop stop-color="#231F27" offset="1"/>
 </linearGradient>
 <path d="m318.15 61.736c-.142-3.615 1.548-7.322 2.196-10.852.554-2.967-.149-8.383 1.905-10.853 3.23-3.875 13.954-.088 17.921 1.797 2.696 1.297 3.541 3.608 5.798 5.156 2.405 1.622 5.305 1.723 7.899 3.487 2.433 1.649 4.913 2.926 4.757 6.187-.169 3.575-4.581 5.055-5.953 8.015-.615 1.334-.473 3.183-.797 4.646-.521 2.321-1.021 3.196-1.656 5.095-1.148 3.332-.188 7.622-1.061 11.39-.338 1.453-2.081 2.794-2.385 4.172-.386 1.788.04 4.159.04 6.011 0 3.467 1.081 8.927.047 12.177-1.412 4.464-6.088 3.788-9.23 1.439-4.108-3.067-6.662-7.095-6.831.639-.136 5.501 1.026 6.994-4.737 7.582-5.055.521-7.258.422-7.913-5.058-1.115-9.274-4.041-16.279-5.224-25.27-4.75.3-5.088 10.115-6.189 13.454-1.676 5.078-1.196 10.677-3.534 15.519-1.926 3.963-7.19 10.562-12.285 5.361-4.399-4.493.736-12.521-2.906-17.028-.331-.169-.669-.159-1 0-1.121 1.604-1.392 12.373-4.757 5.548-.643-1.311.25-4.075.061-5.564-.304-2.494.284-4.295-.648-6.349-3.217-7.13-3.312-14.667-1.906-22.77 1.379-7.93 3.237-14.343 2.534-22.8-.635-7.808-.074-14.745-.831-22.326-.804-7.862-1.662-14.795 6.785-14.762 7.041.01 13.603 1.959 18.839 6.446 2.177 1.852 5.596 4.592 6.434 7.45.5 1.666-.479 3.791-.007 5.48.486 1.757.054 8.504.405 10.139.817 3.629 1.196 3.051.852 6.649-.29 2.99-2.953 5.579-.852 8.103 2.12 2.544 4.23 1.696 4.23 1.696z" fill="url(#ian_symbols_f7737e58e98bcf14053d4226a807e266)"/>
 <linearGradient id="ian_symbols_53fa1501e593f8f451ec3ddd17c8dc8d" y2="32.271" gradientUnits="userSpaceOnUse" x2="143.2" y1="110.88" x1="136.32">
  <stop stop-color="#84703F" offset=".0112"/>
  <stop stop-color="#7A5C43" offset=".5112"/>
  <stop stop-color="#3A3032" offset="1"/>
 </linearGradient>
 <path d="m130.92 44.451c-1.419-2.224-.919-5.636-.777-8.278 3.852-1.97 5.906-2.253 10.887-2.683 3.331-.284 7.893-2.646 8.44 1.666.418 3.328-4.088 5.439-2.439 10.052.919 2.567 3.798 3.771 4.223 6.737.48 3.402-2.162 5.406-3.23 8.44-1.237 3.497.595 6.724-1.919 9.792-4.906 5.967-7.596 9.474-6.771 18.519.513 5.666 1.858 8.288 5.189 12.575 2.372 3.034 5.332 6.468 4.365 10.616-3.635.648-8.784-6.369-11.136-9.011-2.906-3.312-5.142-7.528-6.007-11.633-1.413-6.565-1.453-19.343 5.433-20.796.122-2.581-.865-4.943-.777-7.031.088-2.122 1.919-4.713 1.297-6.747-.77-2.598-5.264-2.882-5.974-5.48-.939-3.399 3.095-3.382 2.413-6.247-.372-.111-.737-.135-1.108-.067l-2.09-.428z" fill="url(#ian_symbols_53fa1501e593f8f451ec3ddd17c8dc8d)"/>
 <linearGradient id="ian_symbols_0ac3233237e33684e98bab0904818346" y2="8.9238" gradientUnits="userSpaceOnUse" x2="206.27" y1="101.23" x1="181.53">
  <stop stop-color="#796060" offset=".0112"/>
  <stop stop-color="#3E392E" offset=".3933"/>
  <stop stop-color="#2B3035" offset=".7247"/>
  <stop stop-color="#231F27" offset="1"/>
 </linearGradient>
 <path d="m179.41 7.342c.587-4.074 6.561-4.551 9.588-2.838 3.21 1.794 2.102 5.068 3.987 7.386 2.128 2.622 4.277 2.22 5.825 5.588 1.439 3.108 1.277 6.781 2.628 9.998 2.96 7.052 2 13.563 3.703 20.786.737 3.21 1.913 5.187 2.108 8.751.203 3.943 0 7.954 0 11.896 0 8.011-.412 16.289.757 24.033.521 3.456 1.291 8.565-.128 11.48-3.176 6.491-5.805 1.011-7.149-2.598-2.831-7.616-4.987-14.221-6.562-22.465-.764-3.987-.034-8.068-.838-12.167-.791-3.96-3.325-6.616-5.102-10.396-2.98-6.301-.345-15.1-3.318-21.641-1.656-3.683-3.068-6.531-3.386-11.045-.229-3.078 1.169-9.382-.845-11.288l-1.27-5.476z" fill="url(#ian_symbols_0ac3233237e33684e98bab0904818346)"/>
 <linearGradient id="ian_symbols_f736e2d2f0cabd442d9080c51afe565a" y2="8.1845" gradientUnits="userSpaceOnUse" x2="261.87" y1="43.05" x1="252.52">
  <stop stop-color="#84703F" offset=".0112"/>
  <stop stop-color="#3E392E" offset=".2921"/>
  <stop stop-color="#2B3035" offset=".6011"/>
  <stop stop-color="#231F27" offset="1"/>
 </linearGradient>
 <path d="m248.13 11.565c-.115-.76-.007-1.723.081-2.47 3.149-.284 6.237-3.034 10.494-1.754 4.223 1.277 2.913 3.629 3.358 7.582.372 3.284 2.095 5.132 3.25 8.143 1.27 3.23.757 6.717.939 10.444.189 3.737 1.284 7.169-1.027 10.193-3.764 4.926-5.791-.706-7.589-4.084-1.912-3.599-4.203-6.977-6.163-10.866-.723-1.426-1.966-4.061-2.527-5.687-.304-.841-.676-1.753-.824-2.662-.209-1.271 1.466-1.389 1.25-2.321-.203-.791-1.014-1.858-1.649-2.304l.41-4.214z" fill="url(#ian_symbols_f736e2d2f0cabd442d9080c51afe565a)"/>
 <linearGradient id="ian_symbols_2671ba8a9f319094410f1fa7b16e2721" y2="6.2679" gradientUnits="userSpaceOnUse" x2="168.41" y1="46.181" x1="157.72">
  <stop stop-color="#84703F" offset=".0112"/>
  <stop stop-color="#7A5C43" offset=".5112"/>
  <stop stop-color="#3A3032" offset="1"/>
 </linearGradient>
 <path d="m158.33 15.356s-.859-2.416-1.224-2.686c-2.351-4.085-.973-9.491 4.555-8.21.284 8.082 2.939 13.464 4.994 20.698 2.183 7.615 2.223 15.718 2.216 24.012-1.257-1.794-1.067-4.828-2.744-7.146-1.933-2.655-4.365-3.878-5.46-7.173-1.034-3.119 1.115-14.903-2.337-16.117v-3.378z" fill="url(#ian_symbols_2671ba8a9f319094410f1fa7b16e2721)"/>
 <linearGradient id="ian_symbols_56a8014b004b55848967529a8a4b463c" y2="7.2388" gradientUnits="userSpaceOnUse" x2="217.63" y1="59.768" x1="203.55">
  <stop stop-color="#84703F" offset=".0112"/>
  <stop stop-color="#3E392E" offset=".2921"/>
  <stop stop-color="#2B3035" offset=".6011"/>
  <stop stop-color="#231F27" offset="1"/>
 </linearGradient>
 <path d="m200.5 10.721c-1.325-1.331-.899-4.095-.784-6.261 2-.108 6.785-.889 8.292.432 1.169 1.041 1.007 4.18 2.291 5.717 2.385 2.841 6.913 6.156 7.838 7.345.919 1.193-.209 1.896.561 3.23.777 1.345.736 3.399 1.135 3.507.433 4.007-1.209 5.96.574 9.109.534.902 1.892.943 2.446 2.203.689 1.567-.655 4.027-.027 5.608 1.473 3.683 4.209 2.426 2.338 6.629-.858 1.906-1.737 1.429-2.325 3.778-.426 1.747.061 4.128-.148 5.862-1.892.456-3.007-.574-3.406-2.426-2.805.044-2 4.767-2.919 6.649-5.318 2.146-7.156-4.312-7.44-8.278-.148-2.186.433-4.632.021-6.757-.392-2.044-2.142-3.919-2.73-5.997-1.122-3.997-.223-8.602-.663-12.978-.405-4.18-2.919-7.95-4.209-11.893l-.84-5.479z" fill="url(#ian_symbols_56a8014b004b55848967529a8a4b463c)"/>
 <radialGradient id="ian_symbols_fa92fcc544e608a401b80c226f0dd324" gradientUnits="userSpaceOnUse" cy="83.872" cx="389.08" r="30.859">
  <stop stop-color="#DFBF6F" offset="0"/>
  <stop stop-color="#DFB354" offset=".5337"/>
  <stop stop-color="#D8A35A" offset="1"/>
 </radialGradient>
 <path d="m419.34 60.482c-3.358-6.328-6.325-5.071-10.96-5.48-4.63-.436-9.69 5.044-16.86 4.632-7.177-.429-12.657 0-21.935-1.689-1.311-.237-2.946-.683-4.831-1.277-7.116 6.315-8.38 27.479-8.38 35.852 0 7.312 1.696 8.699 4.277 18.37 5.501-1.214 11.731-2.177 18.211-2.339 16.448-.422 22.767 4.214 26.571 4.214 3.797 0 5.905-.845 7.169-2.96 1.258-2.102 7.589-11.806 8.434-25.709.85-13.915 1.69-17.283-1.69-23.609z" fill="url(#ian_symbols_fa92fcc544e608a401b80c226f0dd324)"/>
 <linearGradient id="ian_symbols_c16dffe217cd53d48936126639635a64" y2="3.8181" gradientUnits="userSpaceOnUse" x2="150.13" y1="30.374" x1="143.01">
  <stop stop-color="#84703F" offset=".0112"/>
  <stop stop-color="#7A5C43" offset=".5112"/>
  <stop stop-color="#3A3032" offset="1"/>
 </linearGradient>
 <path d="m151.16 32.558c-1.352-9.458-1.088-18.915.378-28.361-.412.068-.811.125-1.229.199-2.838.497-6.244 1.49-9.805 2.74 3.277 5.795 2.629 13.309 3.906 20.354 4.22-2.538 5.05 1.689 6.75 5.068z" fill="url(#ian_symbols_c16dffe217cd53d48936126639635a64)"/>
 <linearGradient id="ian_symbols_5720191082a68874f99c43261370b578" y2="15.574" gradientUnits="userSpaceOnUse" x2="108.71" y1="41.803" x1="113.34">
  <stop stop-color="#84703F" offset=".0112"/>
  <stop stop-color="#7A5C43" offset=".5112"/>
  <stop stop-color="#3A3032" offset="1"/>
 </linearGradient>
 <path d="m91.269 32.558c1.696 5.044 5.906 5.892 10.129 3.365.845 6.751 6.751 6.751 11.792 5.906 4.224-1.689 3.386-6.747 10.129-9.271.845-.848-1.69-6.761 1.689-8.44 1.69-.841 3.366-1.689 4.217-2.531 1.102-3.848-.311-6.622-2.128-9.254-3.838 1.581-7.257 3.01-9.683 3.869-4.603 1.622-13.731 5.686-20.901 9.163.317 3.78-.419 7.193-5.25 7.193z" fill="url(#ian_symbols_5720191082a68874f99c43261370b578)"/>
 <linearGradient id="ian_symbols_2fab1f7d2548c904fd4e7e02cf1e33b9" y2="76.208" gradientUnits="userSpaceOnUse" x2="80.49" y1="76.208" x1="76.436">
  <stop stop-color="#C1A98E" offset=".0618"/>
  <stop stop-color="#A99668" offset="1"/>
 </linearGradient>
 <path d="m76.504 74.001c-.547.135 2.365 4.784 3.893 4.406.06-1.396.311-3.152-.379-3.294-.704-.139-2.96-1.264-3.514-1.112z" fill="url(#ian_symbols_2fab1f7d2548c904fd4e7e02cf1e33b9)"/>
 <linearGradient id="ian_symbols_4cf356a61b003c246d55123536b1304b" y2="100.45" gradientUnits="userSpaceOnUse" x2="80.35" y1="100.45" x1="76.299">
  <stop stop-color="#BDA687" offset="0"/>
  <stop stop-color="#A99668" offset="1"/>
 </linearGradient>
 <path d="m76.368 98.24c-.554.148 2.358 4.787 3.886 4.419.061-1.396.317-3.152-.378-3.294-.703-.140-2.96-1.265-3.508-1.126z" fill="url(#ian_symbols_4cf356a61b003c246d55123536b1304b)"/>
 <linearGradient id="ian_symbols_3e7b196066b29b64c11288a1cc17dc14" y2="102.34" gradientUnits="userSpaceOnUse" x2="97.018" y1="102.34" x1="93.822">
  <stop stop-color="#BDA687" offset="0"/>
  <stop stop-color="#A99668" offset="1"/>
 </linearGradient>
 <path d="m96.965 100.27c-.223-.453-3.669 2.905-3.074 4.183 1.203-.192 2.736-.284 2.736-.909 0-.63.561-2.81.338-3.27z" fill="url(#ian_symbols_3e7b196066b29b64c11288a1cc17dc14)"/>
 <linearGradient id="ian_symbols_f250b9435505af94d9e05cb6a47d227b" y2="109.08" gradientUnits="userSpaceOnUse" x2="83.377" y1="109.08" x1="80.594">
  <stop stop-color="#BDA687" offset="0"/>
  <stop stop-color="#A99668" offset="1"/>
 </linearGradient>
 <path d="m83.336 107.44c-.19-.345-3.169 2.32-2.69 3.294 1.027-.162 2.352-.261 2.358-.747 0-.48.520-2.19.332-2.54z" fill="url(#ian_symbols_f250b9435505af94d9e05cb6a47d227b)"/>
 <linearGradient id="ian_symbols_37f506207202b3944147be06ffdd70c4" y2="70.775" gradientUnits="userSpaceOnUse" x2="61.507" y1="70.775" x1="30.18">
  <stop stop-color="#AD7A46" offset=".0337"/>
  <stop stop-color="#AB8958" offset="1"/>
 </linearGradient>
 <path d="m30.384 74.69c-.77-1.581.798-2.987 2.055-3.683 1.412-.781 3.135-.628 4.487-1.538 1.345-.888 2.392-1.882 4.176-1.882.811 0 1.879.193 2.649.007.851-.203 1.318-.787 2.365-.547.277 1.037-1.582 1.406-2.291 1.97-1 .797-.946 1.527-.879 2.869 1.73.183 2.765-1.669 3.777-2.852 1.156-1.352 2.771-1.869 4.265-2.541-.183 1.159-1.858 1.071-1.622 2.457 1.277.497 2.128-.084 3.047-.649.98-.604 1.974-.662 3.055-1.192 1.432-.713 3.562-4.524 5.149-4.332 2.858.348-2.007 4.051-2.858 4.635-1.947 1.325-5.082 1.689-6.826 3.271-.986.888-.541 2.578-.919 3.73-.216.669-.648 1.186-.885 1.818-.25.689-.162 1.449-.264 2.209-.622.02-1.291.041-1.879-.034-.264-1.784.831-3.389.622-5.22-3.649-.639-1.23 3.345-2.162 4.994-.743 1.277-2.143.26-2.528-.692-.257-.652.216-1.041-.345-1.605-.473-.463-1.074-.402-1.723-.324-.034.78.311 1.949-.547 2.209-1.176.368-1.244-.997-1.142-1.818.216-1.801 1.426-3.078 1.196-4.994-1.372-.199-2.061.03-2.317 1.264-.284 1.409-.169 1.909-1.047 3.078-.541.703-1.278 1.689-2.149.554-.702-.919.169-2.051-.06-3.088-.237-.067-.663-.067-.899 0-.291 1.159-1.224 2.707-2.812 2.774l-.689-.848z" fill="url(#ian_symbols_37f506207202b3944147be06ffdd70c4)"/>
 <linearGradient id="ian_symbols_660bf16be52e5b1411435bc4180903ae" y2="61.059" gradientUnits="userSpaceOnUse" x2="96.563" y1="96.034" x1="61.588">
  <stop stop-color="#B9916A" offset="0"/>
  <stop stop-color="#BD9C7A" offset=".3315"/>
  <stop stop-color="#B6A07C" offset=".7416"/>
  <stop stop-color="#A99668" offset="1"/>
 </linearGradient>
 <path d="m82.369 86.13c-1.608-.044-4.291-4.68-5.366-5.832-1.256-1.321-2.865-4.818-4.933-4.46.041 1.693 1.703 4.281 2.669 5.652.987 1.413 1.885 2.872 3.209 4.034 1.724 1.514 4.25 2.436 6.257 3.531 1.075.571 5.082 2.858 2.054 3.487-2.108.433-3.095-2.125-5.149-1.125-1.034.496-1.088 1.209-1.115 2.246-.04.849.257 1.974-1.243 1.467-.542-2.273 1.587-7.345-2.224-7.595-.878 2.017.324 4.747.115 7.085-.095 1.236-.608 2.858-1.954 1.558-.858-.832-.547-2.575-.547-3.778 0-2.773.197-5.406-.831-7.7-.5-1.125-.736-2.622-1.452-3.554-.669-.889-2.129-2.825-3.271-2.538-.237 1.193.885 1.825 1.642 2.514.939.889 1.439 1.689 1.825 2.916.763 2.49.689 6.227.364 8.893-1.493.422-1.75-2.751-2.047-3.733-.385-1.284-1.784-3.656-3.453-3.612-.338 1.584 1.041 2.436 1.817 3.564 1.081 1.571.736 3.696.824 5.599 2.737.023 4.419 2.666 5.588 4.919-2.304 1.018-2.973-2.558-5.217-2.533-.425 0-.898.436-1.291.388-.993-.128-.5-.202-1.041-.811-.757-.854-1.297-1.747-2.352-2.392-.737.723-1.898 2.077-3.223 1.699-2.723-.794 1.081-1.787 1.352-2.155 1.156-1.538-2.088-1.889-2.764-2.302-1.203-.732-2.689-2.152-2.338-3.723 1.371-.196 1.364.166 2.229.757.838.567 1.338.706 2.318 1.04 1.628.564 2.507 2.72 4.332 2.288.331-1.271-2.284-3.434-3.122-4.345-1.209-1.298-2.966-2.48-1.642-4.463.683-1.014 3.034-1.122 3.953-.345.487.409.007.889.966 1.267.581.25 1.581.182 2.223.074-.398-1.233-2-2.378-3.027-3.142-.885-.672-2.48-2.967-3.649-2.791-1.277.193-1.236 2.024-1.817 2.814-.716 1-1.818 1.301-1.088 2.73.473.389 1.27.869 1.223 1.558-.074 1.152-1.77 1.237-2.629.656.041-1.058.034-3.774-.357-4.835-.271-.757-1.365-1.504-1.811-2.058-.744-.909-.656-1.254-.825-2.382-2.122-.392.168 4.213.459 5.004.236.639.986 1.936.723 2.656-.345.929-2.271 1.841-3.21 1.615-.04-1.176.338-2.882 0-4-.384-1.277-2.061-2.112-2.243-3.477-.311-2.317 1.426-5.416 3.203-6.261 1.798-.844 4.007-1.963 5.48-3.554 1.622-1.764 3.007-3.659 4.662-5.457 1.798-1.939 2.541-3.271 5.332-3.271 1.331.01 2.054.128 3.197.703.804.402 1.615.973 2.622.831 1.074-.128 2.169-1.037 3.095-1.382 1.291-.456 2.183-.564 3.73-.564.852 0 3.23.585 3.919.152 1.48-.933.142-2.038 2.5-1.939.588 2.456 3.115 2.152 5.19 3.075 1.304.574 5.372 1.831 4.96 3.845-.406-.02-.865.068-1.291.044-.582 2.511 3.439 3.771 2.689 6.369-3.163.672-4.041-4.571-5.453-6.085-1.676-1.801-4.696-3.859-7.143-3.653-1.622.139-1.487.919-.317 1.531.77.412 1.858.507 2.683.808 1.966.727 2.669 1.767 3.561 3.554.933 1.875 2.345 2.592 3.96 3.821 1.52 1.172 3.959 2.169 3.406 4.487-2.582.084-4.575-2.534-6.285-4.379-1.453-1.558-2.899-5.129-5.203-5.565-2.507-.479.209 2.646 1.041 3.446 1.196 1.091 2.663 2.274 4.061 3.051.446 1.26 4.784 6.413 1.987 6.392-1.473-.02-3.71-3.24-4.528-4.419-.811-1.183-1.885-4.656-3.959-4.345-.305 2.078 2.324 2.74 3.04 4.582.318.824.933 2.429.562 3.362-.662 1.642-2.284.095-3-.922-.744-1.074-1.244-2.48-1.939-3.48-1.183-1.666-1.615-1.642-1.095-3.636.122-.466.574-1.084.337-1.747-.27-.703-1.256-.889-1.107-1.774.047-.304.979-.544 1.128-1.074.284-1.017-.209-.953-.736-1.558-.987-1.149-1.372-1.149-2.926-1.159-1.102 0-2.223-.034-3.325.021-.669 2.352 6.372-.186 5.277 2.906-.459 1.311-3.23.378-4.055.01-1.372-.632-2.425-.912-4.155-.824-.291.683-.305 1.334-.277 2.186 1.263.402 8.663.088 7.46 3.352-2.547.128-4.521-.645-6.899-.51-.406 1.385.986 1.514 1.926 1.646 1.183.162 1.838.291 2.919.693.851.324 2.182.368 2.845 1.081.716.76.412 1.909.898 2.72.804 1.352 2.487 2.45 3.473 3.761.588.777 1.048 1.642 1.994 1.949 1.669.561 1.832-.791 2.784-1.561.473-.389 1.311-.541 1.939-.541.466 1.97-1.513 3.953 1.108 4.744.311.757.379 1.615.304 2.48-.101 1.223-.663 1.473-.919 2.372-.459 1.669 2.162 2.838-.406 4.352-4.554 2.689-6.663-5.237-9.629-6.994.034.192-.128.605-.108.811-1.317.273-2.426-.878-2.155-2.2 1.007-.324 2.155-1.72 3.575-1.105.723.325 1.311 1.345 1.797 1.95 1.182 1.463 2.514 3.338 4.365 3.899.271-.733.344-2.622-.081-3.288-.602-.99-2.365-1.716-3.237-2.503-2.014-1.811-3.358-4.518-5.689-5.784-.264 1.655.959 2.716.587 4.297-2.771.088-2.878-1.635-2.878-4.027 0-1 .189-2.084-.338-2.902-.513-.77-1.98-1.689-2.737-1.973-.858-.324-1.744-.564-2.643-.824-.946-.281-2.128-.368-3.047-.841-1.087-.588-4.886-2.774-4.872-4.169 2.108-.294 4.325 3 6.089 2.436.642-2.169-3.014-1.409-2.183-3.51.23-.575 1.23-.791.966-1.886-.183-.757-1.344-1.615-1.744-2.338-.858-.047-1.73-.047-2.574 0-.034.213-.034.453.013.649.689.172 2.075.791 2.345 1.558.655 1.865-1.676 1.148-2.453.348-.601-.604-.743-1.183-1.73-1.183-.594 0-1.493.209-1.405.99.122 1.061 1.777.959 1.493 2.466-1.034.068-2.926-.365-3.865.024-1.615.689-.547 1.558.433 1.949 1.676.672 3.338 1.744 5.075 2.382.406.152 3.068.844 2.886 1.537-.237.865-3.129.477-3.562.324-2.683-.845-3.893-3.409-7.028-3.237-.054.987-.357 2.818-.027 3.737.304.821 1.156 1.007 1.777 1.713.994 1.101 2.149 3.287 4.062 2.834.351-1.253-2.866-4.179-3.737-5.068.919-1.115 3.514 1.689 4.46 2.189 1.135.625 1.689.929 2.817.213.682-.419.284-.666 1.203-.909.494-.118 1.615-.108 2.102 0 1.899.436 2.899 2.21 3.872 3.663 1.088 1.649 2.703 2.146 3.764 3.771.426.649.987 2.068.872 2.882v1.123zm-28.016-10.18c.513-.152 1.067-.199 1.615-.122.318 1.744 2.473 1.916 2.453 4.105 1.128.413 2.5-1.017 2.189-2.142-1.919.429-.352-1.679-.582-2.655-1.102-.271-1.027 1.159-2.176.791-.027-.943-.074-1.463.466-2.102.493-.588 1.568-.541 1.027-1.473-2.616-.108-5.413 1.926-5.839 2.902-.403.977.847.696.847.696z" fill="url(#ian_symbols_660bf16be52e5b1411435bc4180903ae)"/>
 <linearGradient id="ian_symbols_a352124bcb67f1f40d193463173f6729" y2="89.651" gradientUnits="userSpaceOnUse" x2="53.252" y1="89.651" x1="50.017">
  <stop stop-color="#AD7A46" offset=".0337"/>
  <stop stop-color="#AB8958" offset="1"/>
 </linearGradient>
 <path d="m50.866 93.648c.182-1.027-.453-1.821-.547-2.773-.122-1.018-.196-2.038-.284-2.937-.129-1.396.398-5.143 1.979-2.825.824 1.209 1.034 3.484 1.088 4.917.048 1.533.757 5.24-1.398 4.872l-.838-1.254z" fill="url(#ian_symbols_a352124bcb67f1f40d193463173f6729)"/>
 <linearGradient id="ian_symbols_90454a7e84211044dd42756579475f25" y2="85.923" gradientUnits="userSpaceOnUse" x2="48.016" y1="85.923" x1="39.939">
  <stop stop-color="#AD7A46" offset=".0337"/>
  <stop stop-color="#AB8958" offset="1"/>
 </linearGradient>
 <path d="m39.993 83.617c-.797-4.396 7.413-2.707 7.954.977.156 1.101 0 2.361 0 3.487 0 1.547-.135 1.95-1.649 2.5-1.737.638-5.994.273-5.447-2.48.912-.054 1.859.064 2.778-.02 1.277-.132 1.425-.193 1.52-1.571.142-2.058-2.067-3.193-4.048-2.328l-1.108-.565z" fill="url(#ian_symbols_90454a7e84211044dd42756579475f25)"/>
 <linearGradient id="ian_symbols_c4586a830cd2a4046d413ba14ef84099" y2="59.531" gradientUnits="userSpaceOnUse" x2="103.28" y1="59.531" x1="91.153">
  <stop stop-color="#BAA482" offset=".0618"/>
  <stop stop-color="#A99668" offset="1"/>
 </linearGradient>
 <path d="m91.153 55.181s1.014-.439 1.156-.953c2.135-.463 3.454 3.382 5.406 2.355-.358-1.841-2.953-3.078-3.088-4.994-.196-3.196 5.068 2.102 5.724 3.213.737 1.267.48 2.169.271 3.578-.284 1.794.236 2.338 1.317 3.703 1.095 1.396 1.331 1.832 1.331 3.703 0 1.128.257 3.207-1.513 2.582-.163-3.294.919-6.697-2.696-8.136-1.433-.574-2.899-.942-4.291-1.683-1.027-.537-3.196-1.125-3.487-2.389l-.133-.979z" fill="url(#ian_symbols_c4586a830cd2a4046d413ba14ef84099)"/>
 <linearGradient id="ian_symbols_c6259007b94c3ca4218443e3c6815006" y2="97.115" gradientUnits="userSpaceOnUse" x2="90.691" y1="97.115" x1="79.425">
  <stop stop-color="#BDA687" offset="0"/>
  <stop stop-color="#A99668" offset="1"/>
 </linearGradient>
 <path d="m81.754 99.733s-.169-.581-.453-.713c-.067-1.152 2.318-1.433 1.913-2.558-1.115 0-2.102 1.213-3.237 1.074-1.919-.25 1.723-2.419 2.433-2.635.824-.236 1.325-.021 2.149.25 1.021.334 1.392.118 2.291-.294.932-.412 1.229-.497 2.317-.277.683.108 1.933.203 1.392 1.058-1.966-.271-4.183.456-5.365 2.189-.473.672-.534-.257-1.088.392-.426.474-.98 1.537-1.75 1.548l-.602-.034z" fill="url(#ian_symbols_c6259007b94c3ca4218443e3c6815006)"/>
 <linearGradient id="ian_symbols_94ea60c8643cf6d445bff72f477206a1" y2="89.618" gradientUnits="userSpaceOnUse" x2="107.81" y1="89.618" x1="97.573">
  <stop stop-color="#BDA687" offset="0"/>
  <stop stop-color="#A99668" offset="1"/>
 </linearGradient>
 <path d="m99.087 79.295c.446-.166 3.818-2.068 3.223.27-.392 1.514-3.087 1.389-2.493 3.75 2.953.841-.378 4.092.216 5.629.676 1.777 2.595 2.602 4.204 3.206 2.5.933 3.25 2.233 3.494 4.876.142 1.483.263 2.805-1.183 3.423-1.082.452-2.643.419-3.825.301-1.25-.108-3.919-1.774-3.473-3.423 1.176.023 1.703-.581 2.905.088.851.477 1.223 1.257 2.365 1.104 1.459-.172 1.622-1.797.777-2.858-.804-1.007-2.312-1.365-3.332-2.081-2-1.345-5.223-3.768-4.162-6.261.98-2.314-.676-6.065-.108-6.626.549-.553 1.387-1.398 1.387-1.398z" fill="url(#ian_symbols_94ea60c8643cf6d445bff72f477206a1)"/>
 <linearGradient id="ian_symbols_ef54df9192389d94096f071f7ccaab2a" y2="80.47" gradientUnits="userSpaceOnUse" x2="106.9" y1="80.47" x1="102.02">
  <stop stop-color="#BDA687" offset="0"/>
  <stop stop-color="#A99668" offset="1"/>
 </linearGradient>
 <path d="m102.72 70.511c-2.372 1.398 1.953 8.004 2.528 9.595.419 1.098.534 1.605-.244 2.494-.918 1.071-1.041 1.084-1.041 2.683 0 1.413-.845 6.186 1.629 5.396.189-1.562-.203-3.271.189-4.808.413-1.649 1.088-2.73 1.115-4.487.027-1.902-1.007-2.784-1.676-4.332-.676-1.537-1.115-2.663-1.115-4.592.01 0 .98-3.335-1.38-1.949z" fill="url(#ian_symbols_ef54df9192389d94096f071f7ccaab2a)"/>
 <linearGradient id="ian_symbols_b2089ff64ed3c464111f0db0bf8e2862" y2="101.3" gradientUnits="userSpaceOnUse" x2="79.356" y1="101.3" x1="59.594">
  <stop stop-color="#BDA687" offset="0"/>
  <stop stop-color="#A99668" offset="1"/>
 </linearGradient>
 <path d="m59.63 98.892c.378 2.716 8.136 1.253 9.825 1.317 1.176.044 1.689.132 2.216 1.192.628 1.257.602 1.365 2.082 1.98 1.304.544 5.399 3.152 5.602.577-1.365-.79-3.102-1.084-4.366-2.017-1.358-1.018-2.101-2.058-3.723-2.75-1.75-.757-2.953-.152-4.628-.108-1.683.021-2.906 0-4.664-.736.001.002-2.722-2.187-2.344.546z" fill="url(#ian_symbols_b2089ff64ed3c464111f0db0bf8e2862)"/>
 <linearGradient id="ian_symbols_4df8de589e4ed364458af8312181e7bb" y2="95.289" gradientUnits="userSpaceOnUse" x2="98.287" y1="95.289" x1="93.654">
  <stop stop-color="#BDA687" offset="0"/>
  <stop stop-color="#A99668" offset="1"/>
 </linearGradient>
 <path d="m93.654 95.597s2.933-3.118 4.439-1.776c.169 1.581.574 1.558-.75 2.449-.737.486-2.392 1.301-2.987.453l-.702-1.126z" fill="url(#ian_symbols_4df8de589e4ed364458af8312181e7bb)"/>
 <linearGradient id="ian_symbols_1c819d358928cb7411c82f40bfdd1517" y2="107.67" gradientUnits="userSpaceOnUse" x2="78.876" y1="107.67" x1="74.43">
  <stop stop-color="#BDA687" offset="0"/>
  <stop stop-color="#A99668" offset="1"/>
 </linearGradient>
 <path d="m74.43 106.56s3.595-.378 4.446 1.159c-.385 1.027-.027 1.213-1.473 1.07-.797-.074-2.521-.412-2.743-1.223l-.230-1.01z" fill="url(#ian_symbols_1c819d358928cb7411c82f40bfdd1517)"/>
 <linearGradient id="ian_symbols_ba052aa1f288d2e4a53be54a478ea469" y2="108.5" gradientUnits="userSpaceOnUse" x2="98.019" y1="108.5" x1="92.688">
  <stop stop-color="#BDA687" offset="0"/>
  <stop stop-color="#A99668" offset="1"/>
 </linearGradient>
 <path d="m92.688 107.12s4.176-.058 5.332 1.655c-.357 1.041.075 1.277-1.628.986-.946-.151-2.994-.692-3.345-1.558l-.359-1.09z" fill="url(#ian_symbols_ba052aa1f288d2e4a53be54a478ea469)"/>
 <linearGradient id="ian_symbols_2885321bd7d793d449e13f3b89647ccd" y2="99.287" gradientUnits="userSpaceOnUse" x2="93.756" y1="99.287" x1="90.796">
  <stop stop-color="#BDA687" offset="0"/>
  <stop stop-color="#A99668" offset="1"/>
 </linearGradient>
 <path d="m90.796 99.541s1.872-2.504 2.837-1.433c.109 1.28.366 1.257-.479 1.96-.466.396-1.527 1.054-1.906.361l-.452-.889z" fill="url(#ian_symbols_2885321bd7d793d449e13f3b89647ccd)"/>
 <linearGradient id="ian_symbols_23aaf95cf11994a435fa5c86e8a7bb1b" y2="110.72" gradientUnits="userSpaceOnUse" x2="91.805" y1="110.72" x1="88.843">
  <stop stop-color="#BDA687" offset="0"/>
  <stop stop-color="#A99668" offset="1"/>
 </linearGradient>
 <path d="m88.843 110.96s1.878-2.497 2.844-1.419c.101 1.26.358 1.26-.486 1.949-.473.392-1.52 1.051-1.913.371l-.445-.90z" fill="url(#ian_symbols_23aaf95cf11994a435fa5c86e8a7bb1b)"/>
 <linearGradient id="ian_symbols_7b31c2360a07cce4f13ffbbedc550aff" y2="105.69" gradientUnits="userSpaceOnUse" x2="69.941" y1="105.69" x1="66.575">
  <stop stop-color="#BDA687" offset="0"/>
  <stop stop-color="#A99668" offset="1"/>
 </linearGradient>
 <path d="m66.989 104.61s3.108-.25 2.946 1.179c-.885.923-.695 1.115-1.784.946-.602-.091-1.797-.46-1.541-1.192l.379-.94z" fill="url(#ian_symbols_7b31c2360a07cce4f13ffbbedc550aff)"/>
 <linearGradient id="ian_symbols_7012527585288b54e1b8adb7a5f91fd3" y2="99.699" gradientUnits="userSpaceOnUse" x2="89.869" y1="99.699" x1="86.504">
  <stop stop-color="#BDA687" offset="0"/>
  <stop stop-color="#A99668" offset="1"/>
 </linearGradient>
 <path d="m86.917 98.628s3.102-.261 2.946 1.172c-.878.919-.696 1.102-1.777.93-.601-.088-1.798-.433-1.547-1.183l.378-.919z" fill="url(#ian_symbols_7012527585288b54e1b8adb7a5f91fd3)"/>
 <linearGradient id="ian_symbols_6ead21e34a3ec7c471a203ff263bc2e7" y2="101.73" gradientUnits="userSpaceOnUse" x2="85.897" y1="101.73" x1="82.584">
  <stop stop-color="#BDA687" offset="0"/>
  <stop stop-color="#A99668" offset="1"/>
 </linearGradient>
 <path d="m83.302 100.44s3.062.571 2.534 1.906c-1.095.658-.967.878-1.98.442-.547-.257-1.615-.909-1.163-1.558l.609-.79z" fill="url(#ian_symbols_6ead21e34a3ec7c471a203ff263bc2e7)"/>
 <linearGradient id="ian_symbols_fccfef4a05abc1e40590a8454d0cba5e" y2="96.15" gradientUnits="userSpaceOnUse" x2="111.81" y1="96.15" x1="108.51">
  <stop stop-color="#BDA687" offset="0"/>
  <stop stop-color="#A99668" offset="1"/>
 </linearGradient>
 <path d="m109.22 94.858s3.068.577 2.534 1.909c-1.081.662-.96.888-1.959.442-.562-.25-1.615-.909-1.169-1.548l.60-.803z" fill="url(#ian_symbols_fccfef4a05abc1e40590a8454d0cba5e)"/>
 <linearGradient id="ian_symbols_c332b41ece591e5455eaef7ecd85239d" y2="109.39" gradientUnits="userSpaceOnUse" x2="131.03" y1="109.39" x1="106.26">
  <stop stop-color="#BDA687" offset="0"/>
  <stop stop-color="#A99668" offset="1"/>
 </linearGradient>
 <path d="m106.34 109.68c-.554-.283 2.169-2.646 3.913-2.646.906 0 2.061.2 2.939 0 .906-.192 1.554-1.101 2.622-1.121 1.028 0 1.196.581 1.98.952.675.301 1.432.149 2.027.629.52.412.561 1.264 1.041 1.602.615.412 2.034.206 2.744.108.352-1.355.75-3.649 1.974-4.399 1.601-.973 2.527.044 3.223 1.365 1.994.294 2.419.76 2.162 2.946-1.324.28-1.959-1.774-3.446-1.669-1.338.101-1.777 1.442-2.082 2.361-.628 1.949-.993 5.632-3.979 4.247-2.555-1.18-3.832-4.082-6.967-3.011-1.156.393-2.527 1.233-3.649.442-1.189-.811-2.689-2.78-3.251-2.371-.53.43-.67.85-1.23.57z" fill="url(#ian_symbols_c332b41ece591e5455eaef7ecd85239d)"/>
 <linearGradient id="ian_symbols_f43d7ea5a53e9f24e98d478c2513f031" y2="106.89" gradientUnits="userSpaceOnUse" x2="68.262" y1="106.89" x1="59.765">
  <stop stop-color="#BDA687" offset="0"/>
  <stop stop-color="#A99668" offset="1"/>
 </linearGradient>
 <path d="m59.927 105.64c-.418-.551-.02-2.413 1.116-2.784 1.203-.389 1.811.456 2.372 1.276.783 1.196 1.074 3.339 2.182 4.339.615.537 1.777.192 2.297.757 1.055 1.081-.378 2.142-1.567 1.713-2.46-.892-5.426-4.876-5.426-4.876s-.554.12-.974-.43z" fill="url(#ian_symbols_f43d7ea5a53e9f24e98d478c2513f031)"/>
 <linearGradient id="ian_symbols_3424d2ca6ddd15c471f0b01558bfadda" y2="106.33" gradientUnits="userSpaceOnUse" x2="91.861" y1="106.33" x1="85.057">
  <stop stop-color="#BDA687" offset="0"/>
  <stop stop-color="#A99668" offset="1"/>
 </linearGradient>
 <path d="m85.958 107.51c-.433-.034-1.143-1.021-.818-1.733.345-.733 1.007-.673 1.642-.585.919.118 2.054.912 3.021.791.514-.054.858-.771 1.365-.791.973-.03.838 1.115.115 1.507-1.507.812-4.689.531-4.689.531s-.198.31-.636.27z" fill="url(#ian_symbols_3424d2ca6ddd15c471f0b01558bfadda)"/>
 <linearGradient id="ian_symbols_bef85f276cd16954e1751d91731c7317" y2="115.58" gradientUnits="userSpaceOnUse" x2="135.91" y1="115.58" x1="132.01">
  <stop stop-color="#BDA687" offset="0"/>
  <stop stop-color="#A99668" offset="1"/>
 </linearGradient>
 <path d="m134.17 118.47c-.236.368-1.453.544-1.912-.074-.513-.648-.135-1.202.237-1.733.52-.746 1.743-1.396 2.088-2.308.183-.486-.284-1.125-.061-1.584.419-.865 1.372-.213 1.385.611.02 1.699-1.703 4.396-1.703 4.396s.20.29-.05.68z" fill="url(#ian_symbols_bef85f276cd16954e1751d91731c7317)"/>
 <linearGradient id="ian_symbols_0f3572ea62456ae42968794961c83971" y2="104.45" gradientUnits="userSpaceOnUse" x2="101.42" y1="104.45" x1="97.926">
  <stop stop-color="#BDA687" offset="0"/>
  <stop stop-color="#A99668" offset="1"/>
 </linearGradient>
 <path d="m99.844 106.97c-.216.324-1.284.474-1.703-.044-.446-.561-.115-1.064.229-1.517.473-.659 1.568-1.237 1.872-2.014.183-.433-.236-.997-.034-1.386.378-.764 1.216-.22 1.216.497.02 1.496-1.54 3.858-1.54 3.858s.18.26-.046.60z" fill="url(#ian_symbols_0f3572ea62456ae42968794961c83971)"/>
 <path d="m55.569 53.722c-.075-.5.541-1.041.919-1.041.392-.014.919.206.966.648.041.456-.311.716-.756.76-.447.045-1.041.140-1.129-.367z" fill="#9097B1"/>
</svg>
